<?xml version="1.0" standalone="no"?>
<!DOCTYPE svg PUBLIC "-//W3C//DTD SVG 20010904//EN"
 "http://www.w3.org/TR/2001/REC-SVG-20010904/DTD/svg10.dtd">
<svg version="1.0" xmlns="http://www.w3.org/2000/svg"
 width="1651.000000pt" height="1651.000000pt" viewBox="0 0 1651.000000 1651.000000"
 preserveAspectRatio="xMidYMid meet">
<metadata>
Created by potrace 1.14, written by Peter Selinger 2001-2017
</metadata>
<g transform="translate(0.000000,1651.000000) scale(0.100000,-0.100000)"
fill="#000000" stroke="none">
<path d="M4985 15600 c-5 -8 1333 -1351 2300 -2308 446 -442 479 -472 495
-457 33 30 151 369 185 530 15 73 23 404 11 461 -2 12 -7 38 -10 58 -9 55 -65
213 -101 287 -77 152 -186 289 -341 429 -110 100 -128 115 -229 187 -55 40
-105 77 -111 82 -63 53 -362 216 -531 290 -222 96 -751 267 -998 321 -22 5
-49 11 -60 14 -156 38 -304 68 -410 85 -184 29 -194 30 -200 21z"/>
<path d="M4899 15485 c-5 -19 -4 -34 3 -68 5 -21 10 -55 13 -75 5 -38 40 -236
50 -282 2 -14 7 -34 9 -45 106 -499 235 -882 431 -1280 169 -343 314 -556 514
-755 251 -249 498 -388 791 -445 106 -21 354 -16 501 10 95 17 283 80 411 138
29 13 60 26 68 29 10 4 -361 381 -1170 1189 -1440 1439 -1615 1610 -1621 1584z"/>
<path d="M10285 14518 c-44 -9 -91 -19 -105 -21 -103 -18 -547 -143 -625 -177
-11 -5 -54 -20 -95 -35 -267 -95 -508 -246 -718 -449 -120 -115 -203 -256
-242 -410 -25 -100 -22 -312 6 -421 18 -68 90 -275 95 -275 17 0 1812 1790
1804 1798 -10 10 -39 8 -120 -10z"/>
<path d="M10373 14318 c-59 -57 -126 -121 -149 -143 -60 -58 -661 -645 -828
-808 -324 -319 -706 -701 -706 -708 0 -10 21 -24 70 -43 25 -10 54 -22 65 -27
86 -36 239 -57 390 -53 213 5 452 128 646 331 68 72 146 172 184 238 16 28 37
64 47 80 27 46 143 282 171 350 23 55 93 249 103 285 48 177 77 298 98 400 33
164 36 189 25 196 -5 3 -57 -41 -116 -98z"/>
<path d="M7969 12166 c-2 -2 -26 -6 -54 -9 -88 -10 -226 -71 -304 -134 -59
-49 -130 -124 -137 -145 -3 -10 -9 -18 -14 -18 -12 0 -86 -155 -110 -232 -15
-47 -30 -74 -48 -87 -15 -10 -99 -39 -187 -65 -167 -50 -343 -111 -433 -152
-29 -13 -56 -24 -61 -24 -5 0 -11 -7 -14 -14 -7 -17 2 -20 90 -36 35 -6 75
-13 90 -16 316 -56 759 -170 1113 -286 172 -56 408 -141 457 -163 17 -8 34
-15 37 -15 3 0 25 -8 49 -19 23 -10 114 -49 202 -86 219 -93 642 -302 850
-419 330 -187 747 -456 945 -608 148 -114 372 -293 404 -323 6 -5 61 -53 121
-104 142 -123 218 -194 455 -431 228 -229 290 -295 465 -493 71 -81 132 -147
136 -147 20 0 10 43 -51 225 -180 536 -374 932 -668 1365 -198 292 -321 440
-586 705 -238 238 -403 375 -651 539 -188 126 -278 177 -452 261 -224 108
-337 151 -670 255 -180 56 -173 50 -208 160 -21 67 -78 182 -113 229 -37 49
-128 137 -180 173 -51 35 -140 77 -191 90 -20 5 -45 11 -56 14 -24 6 -221 15
-226 10z"/>
<path d="M6114 12136 c-60 -19 -101 -54 -129 -110 -44 -87 -28 -185 42 -252
139 -136 367 -33 359 162 -3 87 -40 145 -114 183 -50 25 -109 32 -158 17z"/>
<path d="M5458 11395 c-2 -2 -21 -5 -44 -8 -259 -36 -437 -311 -369 -570 52
-197 252 -344 460 -339 128 4 210 39 312 135 128 122 172 298 117 463 -51 153
-187 276 -343 309 -37 8 -128 15 -133 10z"/>
<path d="M7257 10274 c-1 -1 -45 -5 -97 -9 -52 -3 -122 -8 -155 -11 -61 -4
-72 -5 -255 -25 -58 -6 -116 -12 -130 -14 -77 -8 -148 -16 -170 -20 -14 -2
-43 -7 -65 -9 -22 -3 -78 -11 -125 -17 -47 -6 -92 -13 -100 -14 -8 -1 -33 -5
-55 -8 -22 -4 -58 -9 -80 -12 -47 -6 -181 -30 -280 -50 -38 -8 -86 -17 -105
-20 -19 -3 -53 -10 -75 -15 -22 -5 -53 -11 -70 -14 -62 -11 -364 -88 -460
-117 -216 -66 -286 -97 -340 -154 -83 -86 -313 -496 -404 -720 -123 -301 -176
-449 -167 -464 6 -9 37 -7 76 4 8 2 29 7 45 10 17 2 39 7 50 9 11 2 58 11 105
20 47 9 95 18 108 21 13 2 56 9 95 14 40 6 83 13 97 15 43 7 103 15 160 21 30
4 66 9 80 11 111 19 1007 27 1210 10 52 -4 115 -9 140 -11 25 -2 63 -6 85 -9
22 -3 63 -8 90 -11 28 -3 64 -7 80 -10 17 -2 48 -7 70 -10 22 -3 56 -8 75 -11
19 -2 53 -7 74 -9 22 -3 51 -7 65 -10 308 -52 399 -65 435 -60 22 3 59 8 81
12 22 3 49 7 60 8 11 2 45 6 75 10 30 3 66 8 80 10 14 2 48 6 75 10 28 3 66 7
85 10 221 27 1308 27 1525 0 17 -2 77 -7 135 -10 58 -4 107 -8 110 -10 3 -2
41 -6 85 -9 44 -4 87 -9 95 -11 8 -2 35 -7 60 -10 25 -3 74 -11 110 -17 36 -5
74 -12 85 -13 11 -2 45 -9 75 -15 30 -6 66 -13 80 -15 14 -3 36 -7 50 -10 14
-3 50 -10 80 -16 30 -6 93 -19 140 -31 47 -11 96 -22 110 -24 14 -3 33 -7 42
-10 9 -3 25 -7 36 -9 41 -8 453 -116 572 -150 69 -20 132 -38 140 -40 8 -2 16
-4 18 -5 1 -2 5 -3 10 -4 80 -19 553 -181 689 -236 38 -16 37 8 -3 58 -380
471 -1030 1101 -1479 1433 -33 24 -62 46 -65 49 -3 3 -23 18 -45 35 -22 16
-42 32 -45 35 -9 12 -254 176 -405 272 -224 142 -252 154 -443 193 -149 30
-478 87 -572 99 -19 2 -60 7 -90 11 -30 4 -66 9 -80 11 -138 22 -595 64 -886
80 -99 6 -593 12 -597 8z"/>
<path d="M12737 8766 c-89 -37 -132 -78 -179 -170 -82 -161 -6 -362 167 -442
68 -32 209 -30 271 4 71 39 122 90 154 156 27 54 31 74 31 137 -1 89 -11 126
-50 187 -85 133 -252 186 -394 128z"/>
<path d="M5207 8634 c-1 -1 -49 -5 -107 -9 -58 -4 -112 -9 -120 -10 -8 -2 -44
-6 -80 -9 -36 -4 -76 -9 -90 -11 -14 -3 -43 -7 -65 -10 -49 -6 -182 -26 -210
-31 -11 -2 -33 -7 -50 -9 -113 -20 -328 -70 -344 -79 -10 -6 -50 -105 -57
-140 -2 -11 -15 -54 -28 -95 -35 -109 -111 -410 -121 -481 -2 -8 -5 -28 -9
-45 -16 -82 -27 -143 -31 -172 -3 -18 -7 -50 -10 -70 -3 -21 -12 -81 -20 -133
-17 -123 -26 -199 -42 -375 -16 -187 -8 -839 12 -990 3 -16 7 -57 10 -90 7
-77 35 -296 40 -315 2 -8 7 -36 9 -61 3 -26 8 -53 10 -60 3 -8 7 -30 10 -49 8
-51 45 -225 63 -295 8 -33 17 -69 19 -80 2 -11 21 -83 43 -160 31 -111 42
-139 55 -137 9 2 55 26 103 53 234 135 347 195 598 319 258 126 365 173 653
287 327 128 827 289 1082 348 8 2 83 20 165 40 253 61 566 122 825 161 19 2
46 7 60 9 14 2 51 7 83 10 32 4 66 8 75 10 9 1 46 6 82 10 36 3 72 8 80 10 8
2 49 7 90 11 41 3 89 8 105 10 17 1 68 5 115 9 47 3 103 8 125 10 22 3 103 7
180 11 77 3 169 7 205 9 91 5 604 5 725 0 119 -4 294 -14 350 -19 22 -2 81 -7
130 -10 50 -4 106 -9 125 -11 51 -6 128 -15 180 -20 85 -8 165 -17 190 -20 14
-2 43 -6 65 -9 22 -3 78 -10 125 -17 47 -6 101 -13 120 -15 19 -3 76 -12 125
-20 50 -9 101 -17 115 -19 71 -10 419 -80 595 -119 207 -46 630 -152 645 -161
13 -8 18 6 25 65 3 30 8 66 10 80 2 14 6 63 10 110 3 47 8 99 10 115 8 67 8
142 -1 157 -5 9 -44 42 -88 73 -73 53 -493 332 -651 433 -38 25 -86 55 -105
68 -57 37 -242 149 -290 176 -25 14 -85 49 -135 78 -354 207 -843 464 -1210
635 -181 85 -247 115 -251 115 -2 0 -32 13 -66 29 -138 63 -477 203 -613 253
-184 68 -392 140 -570 198 -104 34 -215 70 -245 81 -50 17 -376 106 -460 125
-50 11 -47 10 -140 32 -82 19 -268 59 -320 68 -23 4 -103 19 -155 29 -44 8
-142 24 -185 30 -59 8 -109 15 -140 20 -47 8 -255 34 -320 40 -36 4 -81 8
-100 11 -101 12 -1001 28 -1013 18z"/>
<path d="M11567 7858 c-57 -12 -92 -33 -130 -80 -79 -98 -79 -218 1 -305 47
-51 89 -74 147 -80 165 -17 296 155 239 312 -15 41 -64 103 -97 123 -47 27
-114 40 -160 30z"/>
<path d="M12709 7676 c-2 -3 -16 -7 -29 -9 -98 -19 -229 -98 -303 -186 -189
-223 -185 -541 11 -752 105 -114 242 -177 402 -186 223 -13 441 115 538 317
50 104 64 162 61 260 -5 158 -58 281 -168 390 -81 81 -161 127 -262 153 -53
14 -239 23 -250 13z"/>
<path d="M8707 5934 c-1 -1 -65 -5 -142 -9 -138 -6 -196 -10 -325 -20 -214
-17 -224 -19 -295 -42 -133 -43 -510 -243 -808 -429 -129 -81 -473 -316 -487
-333 -3 -3 -41 -33 -85 -66 -83 -61 -283 -223 -346 -278 -20 -18 -64 -57 -99
-87 -257 -224 -546 -523 -779 -805 -56 -69 -198 -265 -252 -350 -91 -143 -91
-142 -192 -339 l-46 -89 36 -41 c63 -70 87 -97 213 -241 162 -186 318 -353
339 -365 14 -7 29 2 73 43 100 94 132 122 208 187 41 35 77 67 80 70 27 30
332 266 455 352 174 121 531 350 626 400 109 59 371 238 534 365 73 57 449
287 625 382 63 35 126 69 140 77 29 18 428 214 434 214 2 0 46 20 97 44 115
54 439 189 574 240 55 21 109 41 120 46 53 24 509 177 695 233 221 68 627 178
729 198 23 5 59 13 80 18 20 6 52 13 71 16 19 3 69 14 110 25 59 14 288 58
445 85 48 9 229 35 280 41 22 3 47 7 55 9 8 2 42 7 74 11 51 5 69 8 95 13 2 1
-2 7 -8 15 -12 15 -242 78 -401 111 -8 2 -123 26 -255 54 -245 53 -264 57
-325 66 -19 3 -84 14 -145 25 -60 10 -135 21 -165 25 -30 3 -62 8 -70 10 -8 3
-35 7 -60 9 -25 3 -61 7 -80 10 -19 3 -71 10 -115 15 -76 10 -120 14 -237 26
-29 3 -69 8 -88 10 -53 7 -125 13 -220 21 -47 3 -101 7 -120 9 -134 13 -1032
29 -1043 19z"/>
<path d="M3298 4911 c-46 -20 -100 -69 -132 -120 -23 -35 -27 -51 -40 -133 -6
-38 18 -123 48 -168 30 -46 100 -104 141 -117 48 -15 155 -9 195 12 67 34 100
68 131 130 64 130 32 269 -83 364 -63 51 -181 66 -260 32z"/>
<path d="M4378 4470 c-60 -22 -103 -53 -151 -104 -153 -163 -123 -422 63 -548
64 -43 115 -60 190 -64 183 -10 349 127 379 313 9 60 -8 165 -37 219 -42 82
-154 174 -232 191 -58 13 -169 10 -212 -7z"/>
<path d="M10899 4446 c-2 -2 -56 -7 -119 -11 -63 -3 -128 -8 -145 -10 -16 -2
-75 -6 -130 -10 -55 -3 -120 -8 -145 -10 -25 -2 -79 -7 -120 -10 -41 -4 -88
-8 -105 -10 -16 -2 -52 -7 -80 -10 -108 -12 -311 -40 -365 -50 -14 -3 -41 -7
-60 -11 -403 -67 -672 -127 -1080 -240 -79 -22 -334 -106 -480 -157 -729 -258
-1410 -631 -2015 -1105 -148 -117 -387 -323 -438 -379 l-38 -41 46 -43 c57
-53 236 -193 323 -252 107 -72 193 -127 197 -127 3 0 38 -20 80 -45 41 -24 75
-42 75 -40 0 3 22 -9 50 -25 176 -104 480 -226 785 -315 66 -19 137 -43 157
-51 37 -17 50 -36 135 -204 77 -152 256 -297 435 -351 49 -14 89 -17 216 -15
151 2 160 4 239 35 187 74 303 183 398 376 27 55 57 112 67 126 18 27 31 32
323 120 240 72 521 193 750 323 44 25 87 49 95 53 37 18 255 164 355 238 262
194 622 553 873 871 87 111 257 363 335 499 32 55 62 107 67 115 5 8 50 94 99
190 134 264 249 536 233 552 -4 4 -28 10 -52 14 -49 7 -954 16 -961 10z"/>
<path d="M4227 3480 c-73 -13 -143 -91 -150 -166 -6 -58 9 -97 50 -139 65 -63
139 -79 206 -44 108 55 141 154 88 257 -37 71 -111 106 -194 92z"/>
</g>
</svg>
