<svg width="3074" height="356" viewBox="0 0 3074 356" fill="none" xmlns="http://www.w3.org/2000/svg">
<path d="M2510.31 113.891H2538.18V242.928H2510.31V224.347C2499.82 238.971 2484.76 246.283 2465.15 246.283C2447.43 246.283 2432.29 239.745 2419.73 226.669C2407.17 213.422 2400.89 197.335 2400.89 178.41C2400.89 159.312 2407.17 143.225 2419.73 130.15C2432.29 117.074 2447.43 110.536 2465.15 110.536C2484.76 110.536 2499.82 117.762 2510.31 132.214V113.891ZM2440.37 208.088C2448.12 215.83 2457.84 219.701 2469.54 219.701C2481.24 219.701 2490.96 215.83 2498.7 208.088C2506.44 200.174 2510.31 190.281 2510.31 178.41C2510.31 166.538 2506.44 156.731 2498.7 148.989C2490.96 141.075 2481.24 137.118 2469.54 137.118C2457.84 137.118 2448.12 141.075 2440.37 148.989C2432.63 156.731 2428.76 166.538 2428.76 178.41C2428.76 190.281 2432.63 200.174 2440.37 208.088Z" fill="#F2960C"/>
<path d="M2673.38 113.891H2700.74V236.992C2700.74 256.606 2694.29 271.66 2681.38 282.156C2668.48 292.651 2652.82 297.898 2634.42 297.898C2604.65 297.898 2584.26 287.489 2573.25 266.671L2597.25 252.735C2603.96 265.983 2616.52 272.607 2634.93 272.607C2646.97 272.607 2656.35 269.424 2663.06 263.058C2669.94 256.864 2673.38 248.176 2673.38 236.992V221.25C2662.89 236.218 2647.92 243.702 2628.48 243.702C2610.24 243.702 2594.84 237.251 2582.28 224.347C2569.72 211.271 2563.44 195.529 2563.44 177.119C2563.44 158.71 2569.72 143.053 2582.28 130.15C2594.84 117.074 2610.24 110.536 2628.48 110.536C2647.92 110.536 2662.89 118.02 2673.38 132.988V113.891ZM2602.93 206.024C2610.84 213.766 2620.65 217.637 2632.35 217.637C2644.05 217.637 2653.77 213.766 2661.51 206.024C2669.43 198.281 2673.38 188.647 2673.38 177.119C2673.38 165.592 2669.43 155.957 2661.51 148.215C2653.77 140.473 2644.05 136.602 2632.35 136.602C2620.65 136.602 2610.84 140.473 2602.93 148.215C2595.19 155.957 2591.32 165.592 2591.32 177.119C2591.32 188.647 2595.19 198.281 2602.93 206.024Z" fill="#F2960C"/>
<path d="M2835.43 113.891H2863.3V242.928H2835.43V224.347C2824.93 238.971 2809.88 246.283 2790.26 246.283C2772.54 246.283 2757.4 239.745 2744.84 226.669C2732.28 213.422 2726 197.335 2726 178.41C2726 159.312 2732.28 143.225 2744.84 130.15C2757.4 117.074 2772.54 110.536 2790.26 110.536C2809.88 110.536 2824.93 117.762 2835.43 132.214V113.891ZM2765.49 208.088C2773.23 215.83 2782.95 219.701 2794.65 219.701C2806.35 219.701 2816.07 215.83 2823.81 208.088C2831.55 200.174 2835.43 190.281 2835.43 178.41C2835.43 166.538 2831.55 156.731 2823.81 148.989C2816.07 141.075 2806.35 137.118 2794.65 137.118C2782.95 137.118 2773.23 141.075 2765.49 148.989C2757.74 156.731 2753.87 166.538 2753.87 178.41C2753.87 190.281 2757.74 200.174 2765.49 208.088Z" fill="#F2960C"/>
<path d="M2922.11 89.3739C2918.67 92.8149 2914.54 94.5354 2909.72 94.5354C2904.9 94.5354 2900.69 92.8149 2897.07 89.3739C2893.63 85.7608 2891.91 81.5456 2891.91 76.7282C2891.91 71.9108 2893.63 67.7816 2897.07 64.3407C2900.52 60.7276 2904.73 58.9211 2909.72 58.9211C2914.71 58.9211 2918.92 60.7276 2922.37 64.3407C2925.81 67.7816 2927.53 71.9108 2927.53 76.7282C2927.53 81.5456 2925.72 85.7608 2922.11 89.3739ZM2895.78 242.928V113.891H2923.66V242.928H2895.78Z" fill="#F2960C"/>
<path d="M3023.89 110.536C3038.69 110.536 3050.65 115.267 3059.76 124.73C3068.88 134.193 3073.44 147.183 3073.44 163.699V242.928H3045.57V166.538C3045.57 156.903 3042.99 149.505 3037.83 144.344C3032.67 139.182 3025.61 136.602 3016.67 136.602C3006.86 136.602 2998.94 139.698 2992.92 145.892C2986.9 151.914 2983.89 161.205 2983.89 173.764V242.928H2956.02V113.891H2983.89V130.408C2992.32 117.16 3005.65 110.536 3023.89 110.536Z" fill="#F2960C"/>
<path d="M1493.13 158.969C1495.09 158.969 1496.69 159.682 1497.94 161.109C1499.37 162.536 1500.08 164.23 1500.08 166.192C1500.08 167.975 1499.37 169.58 1497.94 171.007C1491.52 176.892 1484.3 182.331 1476.28 187.324C1468.25 192.139 1460.49 196.152 1453 199.362C1445.51 202.572 1436.77 205.514 1426.79 208.189C1416.98 210.686 1408.51 212.648 1401.37 214.074C1394.42 215.323 1385.77 216.482 1375.43 217.552C1365.26 218.622 1357.5 219.335 1352.15 219.692C1346.98 220.049 1339.85 220.494 1330.75 221.029C1322.37 221.564 1316.49 221.921 1313.1 222.1C1311.32 222.456 1309.53 222.635 1307.75 222.635C1305.79 222.635 1304.09 222.01 1302.67 220.762C1301.42 219.514 1300.71 217.909 1300.53 215.947C1300.35 214.164 1300.88 212.559 1302.13 211.132C1303.38 209.705 1304.99 208.903 1306.95 208.724C1308.37 208.546 1309.89 208.368 1311.49 208.189C1317.91 207.298 1323.62 204.712 1328.61 200.432C1333.61 196.152 1337 190.891 1338.78 184.649C1340.03 177.159 1336.02 171.542 1326.74 167.797C1323.18 166.37 1318.36 168.421 1312.3 173.949C1299.64 187.324 1289.47 202.304 1281.8 218.889C1281.62 219.246 1281.53 219.692 1281.53 220.227C1266.73 305.471 1253 350.411 1240.34 355.048C1239.27 355.405 1238.11 355.583 1236.86 355.583C1234.01 355.583 1231.51 354.602 1229.37 352.64C1225.27 348.36 1224.91 338.463 1228.3 322.948C1231.69 307.433 1237.04 290.045 1244.35 270.785C1251.48 251.703 1259.24 233.513 1267.62 216.214C1271.37 195.171 1274.85 173.592 1278.06 151.479C1278.23 148.626 1279.57 146.664 1282.07 145.594C1284.74 144.524 1287.15 144.881 1289.29 146.664C1291.43 148.447 1292.32 150.677 1291.97 153.352C1290.9 160.663 1289.74 168.332 1288.49 176.357C1288.31 177.248 1288.49 177.783 1289.02 177.962C1289.74 178.14 1290.36 177.873 1290.9 177.159C1305.7 157.186 1319.34 149.696 1331.82 154.689C1338.96 156.829 1344.49 161.02 1348.41 167.262C1352.33 173.325 1353.67 179.923 1352.42 187.057C1351.35 192.763 1349.12 197.935 1345.73 202.572C1345.2 203.285 1345.11 204.088 1345.47 204.979C1345.82 205.693 1346.36 206.049 1347.07 206.049C1360.27 205.158 1372.22 203.999 1382.92 202.572C1393.8 200.967 1405.92 198.648 1419.3 195.617C1432.85 192.407 1445.51 187.859 1457.28 181.974C1469.23 176.089 1479.57 169.045 1488.31 160.842C1489.74 159.415 1491.34 158.791 1493.13 158.969ZM1240.61 332.578C1246.13 317.241 1250.5 301.637 1253.71 285.765C1248.19 301.102 1243.82 316.706 1240.61 332.578Z" fill="url(#paint0_radial_213_132)"/>
<path d="M1694.58 164.587C1696.54 164.587 1698.15 165.3 1699.39 166.727C1700.64 168.153 1701.18 169.847 1701 171.809C1701 173.771 1700.29 175.376 1698.86 176.624C1696.72 178.586 1694.13 180.815 1691.1 183.312C1688.07 185.63 1682.27 189.732 1673.71 195.617C1665.15 201.324 1656.77 206.228 1648.57 210.329C1640.54 214.253 1631.18 217.552 1620.48 220.227C1609.96 222.902 1600.33 223.615 1591.59 222.367C1583.39 220.94 1575.9 217.909 1569.12 213.272C1562.34 208.457 1556.99 202.483 1553.07 195.349C1550.04 189.821 1545.49 186.789 1539.43 186.254C1537.11 186.076 1534.52 186.522 1531.67 187.592C1528.82 188.662 1525.16 190.623 1520.7 193.477C1516.42 196.152 1511.34 200.699 1505.46 207.119C1499.57 213.361 1493.42 221.208 1487 230.66C1485.04 233.513 1482.36 234.315 1478.97 233.067C1475.59 231.819 1474.07 229.411 1474.43 225.845C1475.5 212.291 1478.17 194.993 1482.45 173.949C1480.67 171.274 1480.76 168.599 1482.72 165.924L1484.59 163.249C1489.23 140.422 1494.67 118.22 1500.91 96.6411C1505.55 79.6993 1510.18 64.9867 1514.82 52.5033C1519.46 40.0199 1523.29 30.7465 1526.32 24.6831C1529.53 18.4414 1532.74 13.3589 1535.95 9.43551C1539.34 5.51216 1541.66 3.19382 1542.91 2.48048C1544.33 1.76714 1545.85 1.14296 1547.45 0.607955C1550.49 -0.283716 1553.43 -0.194545 1556.28 0.87547C1559.13 1.76714 1561.54 3.46132 1563.5 5.958C1567.07 10.238 1568.94 16.0339 1569.12 23.3456C1569.48 30.479 1568.5 38.0582 1566.18 46.0833C1564.04 54.1083 1560.74 63.0251 1556.28 72.8335C1551.82 82.6419 1547.19 91.8261 1542.37 100.386C1537.56 108.946 1532.21 117.863 1526.32 127.136C1520.44 136.41 1515.44 143.989 1511.34 149.874C1507.24 155.759 1503.23 161.466 1499.3 166.994C1499.3 166.994 1499.13 167.262 1498.77 167.797L1497.16 170.204C1494.67 183.401 1493.24 190.98 1492.88 192.942C1492.71 194.19 1493.15 195.082 1494.22 195.617C1495.47 196.152 1496.54 195.973 1497.43 195.082C1512.95 178.853 1527.3 171.274 1540.5 172.344C1545.67 172.701 1550.4 174.306 1554.68 177.159C1559.13 180.013 1562.61 183.758 1565.11 188.394C1568.14 193.744 1572.15 198.203 1577.15 201.769C1582.14 205.336 1587.67 207.565 1593.73 208.457C1601.22 209.527 1609.69 208.814 1619.14 206.317C1628.77 203.642 1637.25 200.432 1644.56 196.687C1651.87 192.763 1659.45 188.127 1667.29 182.777C1675.14 177.427 1680.31 173.682 1682.81 171.542C1685.48 169.402 1687.71 167.618 1689.5 166.192C1690.92 164.943 1692.62 164.408 1694.58 164.587ZM1551.47 13.9831C1548.08 13.9831 1542.1 23.6131 1533.54 42.8733C1525.16 61.9551 1517.85 81.3935 1511.61 101.189C1505.55 120.984 1503.58 131.506 1505.72 132.754C1506.62 133.289 1508.4 131.773 1511.07 128.206C1513.75 124.64 1516.78 119.825 1520.17 113.761C1523.56 107.52 1527.12 100.475 1530.87 92.6286C1534.79 84.7819 1538.36 76.846 1541.57 68.8209C1544.96 60.6175 1547.81 52.7708 1550.13 45.2808C1552.45 37.7907 1553.87 31.4598 1554.41 26.2881C1554.94 20.9381 1554.32 17.1039 1552.54 14.7856C1552 14.2506 1551.64 13.9831 1551.47 13.9831Z" fill="url(#paint1_radial_213_132)"/>
<path d="M1880.72 152.817C1882.69 152.817 1884.38 153.53 1885.81 154.957C1887.23 156.383 1887.95 158.077 1887.95 160.039C1887.95 162.001 1887.23 163.606 1885.81 164.854C1874.93 175.733 1862.8 184.738 1849.43 191.872C1836.23 198.827 1823.3 203.642 1810.64 206.317C1797.98 208.992 1785.94 210.329 1774.53 210.329C1763.29 210.151 1753.21 208.724 1744.3 206.049C1743.05 205.693 1742.07 206.139 1741.36 207.387C1739.04 212.737 1735.47 217.017 1730.66 220.227C1726.02 223.437 1720.76 225.131 1714.87 225.31C1708.99 225.31 1703.55 223.883 1698.55 221.029C1691.78 217.819 1686.96 212.826 1684.11 206.049C1681.26 199.273 1680.99 192.318 1683.31 185.184C1685.63 175.911 1690.53 167.44 1698.02 159.772C1705.51 152.103 1712.55 148.269 1719.15 148.269H1719.42C1721.38 148.269 1722.99 148.982 1724.24 150.409C1725.66 151.836 1726.38 153.53 1726.38 155.492C1726.38 157.275 1725.66 158.88 1724.24 160.307C1722.81 161.555 1721.11 162.179 1719.15 162.179C1716.3 162.179 1712.29 165.032 1707.11 170.739C1701.94 176.268 1698.47 182.242 1696.68 188.662C1695.26 192.585 1695.34 196.508 1696.95 200.432C1698.55 204.177 1701.23 206.852 1704.97 208.457C1708.18 210.954 1711.75 212.024 1715.67 211.667C1719.6 211.132 1722.81 209.349 1725.3 206.317C1728.87 202.394 1729.59 199.629 1727.45 198.024C1722.45 194.814 1719.33 190.267 1718.08 184.382C1716.83 178.497 1717.81 173.057 1721.02 168.064C1727.98 156.294 1734.94 152.46 1741.89 156.562C1745.28 158.523 1747.51 162.447 1748.58 168.332C1749.65 174.217 1749.56 180.369 1748.31 186.789C1747.95 188.394 1748.31 189.999 1749.38 191.604C1750.45 193.031 1751.79 193.923 1753.39 194.279C1775.86 198.024 1797.89 196.419 1819.47 189.464C1841.04 182.509 1859.86 171.007 1875.91 154.957C1877.16 153.53 1878.76 152.817 1880.72 152.817ZM1734.4 185.184C1735.11 180.904 1735.29 176.535 1734.94 172.077C1734.22 173.325 1733.6 174.306 1733.06 175.019C1731.99 176.624 1731.55 178.408 1731.73 180.369C1731.9 182.331 1732.8 183.936 1734.4 185.184Z" fill="url(#paint2_radial_213_132)"/>
<path d="M2099.76 162.447C2101.72 162.447 2103.41 163.071 2104.84 164.319C2106.26 165.567 2106.98 167.172 2106.98 169.134C2107.16 171.096 2106.53 172.79 2105.11 174.217C2104.04 175.465 2102.52 177.07 2100.56 179.032C2098.6 180.993 2094.94 184.203 2089.59 188.662C2084.24 193.12 2078.8 197.311 2073.27 201.234C2067.74 205.158 2060.97 209.17 2052.94 213.272C2045.1 217.195 2037.34 220.316 2029.67 222.635C2022 224.775 2013.62 225.755 2004.52 225.577C1995.61 225.399 1987.14 223.705 1979.11 220.494C1965.2 213.539 1954.41 203.285 1946.74 189.732C1946.74 189.553 1946.3 188.84 1945.41 187.592C1944.69 186.343 1943.98 185.363 1943.27 184.649C1942.73 183.758 1941.93 182.777 1940.86 181.707C1939.97 180.637 1938.9 179.834 1937.65 179.299C1936.58 178.764 1935.42 178.586 1934.17 178.764C1919.9 179.121 1899.75 194.547 1873.72 225.042C1871.4 227.717 1868.63 228.252 1865.42 226.647C1862.04 225.042 1860.79 222.456 1861.68 218.889L1875.05 160.039C1875.41 158.256 1876.39 156.829 1878 155.759C1879.78 154.689 1881.56 154.422 1883.35 154.957C1885.31 155.313 1886.73 156.383 1887.63 158.167C1888.7 159.772 1889.05 161.466 1888.7 163.249L1882.54 189.732C1882.37 190.623 1882.72 191.337 1883.61 191.872C1884.51 192.228 1885.31 192.05 1886.02 191.337C1905.82 172.612 1922.49 163.695 1936.04 164.587C1941.75 164.943 1946.57 167.262 1950.49 171.542C1953.52 174.752 1956.2 178.229 1958.51 181.974C1964.58 193.031 1973.14 201.502 1984.19 207.387C1989.72 209.705 1995.52 211.043 2001.58 211.399C2007.65 211.756 2013.35 211.489 2018.7 210.597C2024.23 209.527 2029.85 207.922 2035.55 205.782C2041.26 203.464 2046.43 200.967 2051.07 198.292C2055.89 195.617 2060.61 192.674 2065.25 189.464C2070.06 186.254 2074.08 183.312 2077.29 180.637C2080.5 177.962 2083.62 175.287 2086.65 172.612C2089.68 169.937 2091.64 168.064 2092.53 166.994C2093.6 165.924 2094.41 165.122 2094.94 164.587C2096.19 163.16 2097.79 162.447 2099.76 162.447Z" fill="url(#paint3_radial_213_132)"/>
<path d="M2313.49 159.504C2315.45 159.682 2317.06 160.574 2318.31 162.179C2319.55 163.606 2320.09 165.3 2319.91 167.262C2319.73 169.223 2318.84 170.828 2317.24 172.077C2314.56 174.217 2311.26 176.713 2307.34 179.567C2303.42 182.42 2295.84 187.235 2284.6 194.012C2273.37 200.61 2262.13 206.406 2250.9 211.399C2239.84 216.393 2226.46 220.94 2210.77 225.042C2195.08 229.144 2180.1 231.195 2165.83 231.195C2147.64 231.373 2130.16 228.074 2113.4 221.297C2108.05 219.157 2103.5 216.66 2099.76 213.807C2096.19 210.775 2093.52 207.922 2091.73 205.247C2089.95 202.394 2088.7 199.451 2087.99 196.419C2087.1 193.209 2086.74 190.445 2086.92 188.127C2086.92 185.808 2087.18 183.49 2087.72 181.172C2089.68 172.79 2094.32 164.497 2101.63 156.294C2108.94 148.091 2117.06 141.671 2125.97 137.034C2135.07 132.397 2143.18 130.257 2150.32 130.614C2155.13 130.614 2159.23 132.308 2162.62 135.696C2166.19 139.085 2168.15 143.276 2168.51 148.269C2169.4 156.829 2164.58 164.587 2154.06 171.542C2138.9 180.993 2122.32 185.184 2104.3 184.114C2103.41 183.936 2102.61 184.114 2101.9 184.649C2101.18 185.184 2100.92 185.898 2101.09 186.789C2099.85 195.884 2105.73 203.018 2118.75 208.189C2130.34 213.004 2142.83 215.858 2156.2 216.749C2169.58 217.463 2182.06 216.749 2193.65 214.609C2205.24 212.469 2217.1 209.17 2229.23 204.712C2241.36 200.254 2251.7 195.795 2260.26 191.337C2269 186.7 2277.38 181.885 2285.4 176.892C2293.61 171.72 2299.14 168.064 2301.99 165.924C2305.02 163.784 2307.16 162.179 2308.41 161.109C2310.01 159.861 2311.71 159.326 2313.49 159.504ZM2110.46 167.797C2108.14 171.007 2109.12 172.433 2113.4 172.077C2120.89 171.542 2130.43 168.332 2142.02 162.447C2143.81 161.377 2145.32 160.485 2146.57 159.772C2152.1 156.027 2154.68 152.638 2154.33 149.606C2154.15 147.645 2153.7 146.396 2152.99 145.861C2152.28 145.148 2151.12 144.702 2149.51 144.524C2143.81 144.167 2137.12 146.218 2129.45 150.676C2121.96 155.135 2115.63 160.842 2110.46 167.797Z" fill="url(#paint4_radial_213_132)"/>
<path d="M30.9611 215.495H106.594V244.687H0.442383V58.9211H30.9611V215.495Z" fill="#F2960C"/>
<path d="M185.871 248.137C166.409 248.137 149.867 241.414 136.244 227.968C122.622 214.522 115.81 197.98 115.81 178.342C115.81 158.704 122.622 142.162 136.244 128.716C149.867 115.27 166.409 108.547 185.871 108.547C205.509 108.547 222.051 115.27 235.497 128.716C249.119 142.162 255.931 158.704 255.931 178.342C255.931 197.98 249.119 214.522 235.497 227.968C222.051 241.414 205.509 248.137 185.871 248.137ZM156.413 208.33C164.375 216.292 174.194 220.272 185.871 220.272C197.547 220.272 207.366 216.292 215.328 208.33C223.289 200.369 227.27 190.373 227.27 178.342C227.27 166.312 223.289 156.316 215.328 148.354C207.366 140.393 197.547 136.412 185.871 136.412C174.194 136.412 164.375 140.393 156.413 148.354C148.452 156.316 144.471 166.312 144.471 178.342C144.471 190.373 148.452 200.369 156.413 208.33Z" fill="#F2960C"/>
<path d="M366.628 111.997H397.942L346.193 244.687H313.021L261.272 111.997H292.587L329.74 212.842L366.628 111.997Z" fill="#F2960C"/>
<path d="M433.466 190.55C435.589 200.634 440.454 208.419 448.062 213.903C455.67 219.211 464.958 221.865 475.927 221.865C491.142 221.865 502.553 216.38 510.161 205.411L533.78 219.211C520.688 238.495 501.315 248.137 475.662 248.137C454.077 248.137 436.651 241.591 423.382 228.499C410.113 215.23 403.478 198.511 403.478 178.342C403.478 158.527 410.024 141.985 423.116 128.716C436.208 115.27 453.016 108.547 473.538 108.547C493 108.547 508.923 115.359 521.307 128.981C533.868 142.604 540.149 159.146 540.149 178.608C540.149 181.615 539.795 185.596 539.087 190.55H433.466ZM433.201 167.196H511.222C509.276 156.404 504.765 148.266 497.688 142.781C490.788 137.297 482.65 134.554 473.273 134.554C462.658 134.554 453.812 137.474 446.735 143.312C439.658 149.15 435.147 157.112 433.201 167.196Z" fill="#F2960C"/>
<path d="M721.146 111.997H751.665L700.712 248.933C687.974 283.256 666.39 299.532 635.959 297.763V270.96C644.982 271.491 652.236 269.544 657.721 265.121C663.205 260.875 667.717 254.152 671.255 244.953L672.582 242.299L616.321 111.997H647.636L687.178 208.33L721.146 111.997Z" fill="#F2960C"/>
<path d="M827.033 248.137C807.572 248.137 791.03 241.414 777.407 227.968C763.784 214.522 756.973 197.98 756.973 178.342C756.973 158.704 763.784 142.162 777.407 128.716C791.03 115.27 807.572 108.547 827.033 108.547C846.671 108.547 863.213 115.27 876.659 128.716C890.282 142.162 897.093 158.704 897.093 178.342C897.093 197.98 890.282 214.522 876.659 227.968C863.213 241.414 846.671 248.137 827.033 248.137ZM797.576 208.33C805.537 216.292 815.356 220.272 827.033 220.272C838.71 220.272 848.529 216.292 856.49 208.33C864.452 200.369 868.432 190.373 868.432 178.342C868.432 166.312 864.452 156.316 856.49 148.354C848.529 140.393 838.71 136.412 827.033 136.412C815.356 136.412 805.537 140.393 797.576 148.354C789.615 156.316 785.634 166.312 785.634 178.342C785.634 190.373 789.615 200.369 797.576 208.33Z" fill="#F2960C"/>
<path d="M1012.44 111.997H1041.1V244.687H1012.44V227.703C1003.77 241.326 990.062 248.137 971.309 248.137C956.094 248.137 943.798 243.272 934.421 233.541C925.044 223.811 920.356 210.453 920.356 193.469V111.997H949.017V190.55C949.017 200.457 951.671 208.065 956.978 213.372C962.286 218.68 969.539 221.334 978.739 221.334C988.824 221.334 996.962 218.238 1003.15 212.045C1009.35 205.676 1012.44 196.034 1012.44 183.119V111.997Z" fill="#F2960C"/>
<path d="M1103.28 134.289C1110.53 117.835 1124.16 109.609 1144.15 109.609V140.658C1133.18 139.95 1123.63 142.604 1115.49 148.62C1107.35 154.458 1103.28 164.189 1103.28 177.811V244.687H1074.62V111.997H1103.28V134.289Z" fill="#F2960C"/>
<defs>
<radialGradient id="paint0_radial_213_132" cx="0" cy="0" r="1" gradientUnits="userSpaceOnUse" gradientTransform="translate(2493.98 109.593) rotate(170.156) scale(1337.16 4113.75)">
<stop stop-color="#8015B5"/>
<stop offset="0.229167" stop-color="#5345B8"/>
<stop offset="0.375" stop-color="#118BBC"/>
<stop offset="0.510417" stop-color="#7DE664"/>
<stop offset="0.703125" stop-color="#E68E57"/>
<stop offset="0.84375" stop-color="#E6B74F"/>
<stop offset="1" stop-color="#AF094B"/>
</radialGradient>
<radialGradient id="paint1_radial_213_132" cx="0" cy="0" r="1" gradientUnits="userSpaceOnUse" gradientTransform="translate(2493.98 109.593) rotate(170.156) scale(1337.16 4113.75)">
<stop stop-color="#8015B5"/>
<stop offset="0.229167" stop-color="#5345B8"/>
<stop offset="0.375" stop-color="#118BBC"/>
<stop offset="0.510417" stop-color="#7DE664"/>
<stop offset="0.703125" stop-color="#E68E57"/>
<stop offset="0.84375" stop-color="#E6B74F"/>
<stop offset="1" stop-color="#AF094B"/>
</radialGradient>
<radialGradient id="paint2_radial_213_132" cx="0" cy="0" r="1" gradientUnits="userSpaceOnUse" gradientTransform="translate(2493.98 109.593) rotate(170.156) scale(1337.16 4113.75)">
<stop stop-color="#8015B5"/>
<stop offset="0.229167" stop-color="#5345B8"/>
<stop offset="0.375" stop-color="#118BBC"/>
<stop offset="0.510417" stop-color="#7DE664"/>
<stop offset="0.703125" stop-color="#E68E57"/>
<stop offset="0.84375" stop-color="#E6B74F"/>
<stop offset="1" stop-color="#AF094B"/>
</radialGradient>
<radialGradient id="paint3_radial_213_132" cx="0" cy="0" r="1" gradientUnits="userSpaceOnUse" gradientTransform="translate(2493.98 109.593) rotate(170.156) scale(1337.16 4113.75)">
<stop stop-color="#8015B5"/>
<stop offset="0.229167" stop-color="#5345B8"/>
<stop offset="0.375" stop-color="#118BBC"/>
<stop offset="0.510417" stop-color="#7DE664"/>
<stop offset="0.703125" stop-color="#E68E57"/>
<stop offset="0.84375" stop-color="#E6B74F"/>
<stop offset="1" stop-color="#AF094B"/>
</radialGradient>
<radialGradient id="paint4_radial_213_132" cx="0" cy="0" r="1" gradientUnits="userSpaceOnUse" gradientTransform="translate(2493.98 109.593) rotate(170.156) scale(1337.16 4113.75)">
<stop stop-color="#8015B5"/>
<stop offset="0.229167" stop-color="#5345B8"/>
<stop offset="0.375" stop-color="#118BBC"/>
<stop offset="0.510417" stop-color="#7DE664"/>
<stop offset="0.703125" stop-color="#E68E57"/>
<stop offset="0.84375" stop-color="#E6B74F"/>
<stop offset="1" stop-color="#AF094B"/>
</radialGradient>
</defs>
</svg>
