<svg width="575" height="575" viewBox="0 0 575 575" fill="none" xmlns="http://www.w3.org/2000/svg">
<path d="M199.866 84.77C199.953 85.3704 200.47 88.2294 200.988 91.1456C201.535 94.0618 202.628 99.065 203.433 102.296C204.239 105.526 205.591 110.215 206.425 112.731C207.259 115.247 208.554 118.849 209.302 120.736C210.05 122.623 211.575 126.083 212.639 128.427C213.703 130.743 215.401 134.088 216.379 135.86C217.328 137.604 218.968 140.321 220.004 141.893C221.039 143.465 222.708 145.781 223.686 147.039C224.664 148.297 226.965 150.756 228.778 152.5C230.59 154.215 233.323 156.531 234.848 157.589C236.372 158.647 238.846 160.162 240.313 160.905C241.781 161.677 244.168 162.707 245.607 163.164C247.074 163.65 249.721 164.25 251.504 164.508C253.863 164.851 255.647 164.937 258.063 164.794C259.875 164.708 262.608 164.365 264.104 164.079C265.6 163.764 268.103 163.135 269.628 162.649C271.152 162.163 273.396 161.306 274.633 160.734L276.877 159.733L238.501 121.794C217.414 100.923 200.068 83.8265 199.924 83.7694C199.809 83.7122 199.78 84.1696 199.866 84.77Z" fill="#9C5E00"/>
<path d="M332.427 137.919C313.498 156.588 308.349 161.792 308.694 162.02C308.924 162.163 310.104 162.621 311.312 163.021C312.52 163.421 314.649 163.936 316.03 164.193C317.411 164.422 319.367 164.622 320.345 164.622C321.352 164.622 323.136 164.451 324.315 164.222C325.494 163.993 327.422 163.421 328.63 162.964C329.838 162.506 331.967 161.363 333.348 160.448C334.729 159.533 337.002 157.703 338.382 156.388C339.763 155.073 341.691 152.843 342.697 151.442C343.704 150.041 345.315 147.439 346.293 145.695C347.3 143.923 348.883 140.664 349.803 138.462C350.752 136.261 352.047 132.916 352.68 131.057C353.341 129.17 354.377 125.568 354.981 123.052C355.614 120.508 356.247 117.591 356.448 116.534C356.65 115.476 356.736 114.504 356.707 114.361C356.65 114.189 345.718 124.796 332.427 137.919Z" fill="#9C5E00"/>
<path d="M265.543 232.295C264.68 232.352 261.515 232.581 258.495 232.809C255.503 233.067 249.807 233.638 245.837 234.124C241.896 234.582 236.516 235.297 233.898 235.697C231.28 236.097 226.764 236.869 223.83 237.412C220.895 237.955 216.494 238.87 214.049 239.414C211.603 239.957 207.72 240.929 205.418 241.586C203.117 242.215 199.924 243.245 198.284 243.874C195.551 244.931 195.263 245.132 194.228 246.475C193.624 247.304 192.502 248.991 191.696 250.249C190.891 251.536 189.337 254.28 188.215 256.396C187.093 258.512 185.281 262.314 184.188 264.83C183.095 267.346 181.656 270.863 180.995 272.664C180.333 274.436 179.844 275.98 179.93 276.037C180.017 276.123 181.714 275.866 183.756 275.466C185.77 275.065 189.193 274.465 191.322 274.151C193.451 273.836 197.766 273.293 200.873 272.978C205.62 272.492 208.554 272.407 218.594 272.407C228.404 272.407 231.798 272.521 236.948 272.978C240.4 273.293 244.744 273.75 246.556 274.008C248.368 274.236 252.396 274.837 255.474 275.294L261.055 276.18L268.419 275.151C272.447 274.608 276.935 274.008 278.344 273.865C279.783 273.693 283.149 273.436 285.824 273.236C289.046 273.007 294.857 272.95 302.797 273.064C309.442 273.15 317.727 273.436 321.208 273.664C324.689 273.922 329.09 274.265 330.989 274.436C332.888 274.608 337.059 275.18 340.281 275.723C343.503 276.266 348.307 277.152 350.925 277.724C353.572 278.267 358.059 279.297 360.907 279.983C363.755 280.669 369.451 282.156 373.565 283.271C377.679 284.386 384.468 286.444 388.668 287.845C392.868 289.218 396.349 290.304 396.407 290.247C396.464 290.19 395.572 289.075 394.422 287.788C393.271 286.473 389.992 282.928 387.144 279.897C384.267 276.838 380.124 272.664 377.88 270.577C375.665 268.49 372.443 265.516 370.688 263.972C368.962 262.429 366.028 259.941 364.216 258.426C362.403 256.911 358.29 253.709 355.068 251.307C351.846 248.905 347.962 246.132 346.437 245.132C344.913 244.131 342.467 242.587 341.029 241.701C338.526 240.157 338.239 240.043 333.262 238.956C330.443 238.356 326.271 237.527 324.027 237.098C321.755 236.698 317.353 235.983 314.246 235.525C311.111 235.068 306.278 234.439 303.516 234.124C300.754 233.81 295.95 233.352 292.872 233.095C289.794 232.866 284.731 232.523 281.653 232.38C278.574 232.237 274.029 232.123 271.584 232.152C269.139 232.18 266.406 232.237 265.543 232.295Z" fill="#9C5E00"/>
<path d="M302.941 353.888C300.323 354.031 296.784 354.26 295.03 354.431C292.124 354.66 291.577 354.803 288.413 356.175C286.514 357.005 282.688 358.806 279.898 360.207C277.107 361.579 272.62 364.009 269.915 365.582C267.24 367.154 263.356 369.527 261.343 370.842C259.3 372.157 255.963 374.416 253.892 375.903C251.849 377.361 248.512 379.819 246.527 381.363C244.542 382.878 241.493 385.337 239.767 386.767C238.041 388.225 234.819 391.055 232.604 393.057C230.389 395.058 226.879 398.431 224.837 400.519C222.765 402.634 219.802 405.836 218.191 407.637C216.609 409.439 214.164 412.326 212.783 414.07C211.402 415.786 208.928 419.216 207.288 421.647C205.649 424.077 203.52 427.565 202.57 429.394C201.592 431.224 200.816 432.854 200.816 433.054C200.816 433.226 203.548 436.485 206.886 440.316C210.251 444.118 213.56 447.835 214.25 448.578L215.545 449.894L219.745 446.177C222.046 444.147 225.93 440.888 228.346 438.944C230.763 437.028 234.79 434.026 237.293 432.282C239.767 430.538 243.679 427.965 245.981 426.535C248.282 425.106 251.044 423.391 252.108 422.733C253.201 422.047 255.675 420.217 257.574 418.645C259.502 417.072 262.608 414.642 264.478 413.27C266.319 411.897 269.944 409.381 272.533 407.666C275.094 405.979 278.948 403.549 281.077 402.291C283.206 401.033 286.514 399.175 288.413 398.146C290.312 397.116 294.195 395.115 297.043 393.686C299.891 392.285 305.012 389.912 308.406 388.396C311.801 386.91 316.864 384.765 319.655 383.65C322.445 382.564 327.623 380.62 331.162 379.362C334.7 378.133 339.878 376.389 342.64 375.531C345.402 374.645 350.004 373.272 352.852 372.472C355.7 371.643 361.396 370.185 365.51 369.184C369.624 368.183 375.291 366.897 378.082 366.325C380.901 365.782 385.561 364.924 388.438 364.467C391.315 363.98 393.961 363.609 394.335 363.609C394.709 363.609 394.997 363.494 394.997 363.38C394.997 363.237 392.897 362.665 390.337 362.094C387.748 361.522 383.202 360.55 380.182 359.921C377.19 359.292 371.81 358.32 368.243 357.776C364.676 357.205 359.124 356.433 355.873 356.061C352.622 355.661 347.847 355.146 345.229 354.889C342.611 354.66 338.67 354.317 336.455 354.146C334.24 353.974 326.875 353.802 320.057 353.745C313.268 353.688 305.558 353.774 302.941 353.888Z" fill="#9C5E00"/>
<path d="M214.624 91.2885C221.039 97.6927 238.415 114.875 253.23 129.513L280.214 156.102L280.761 154.844C281.049 154.158 281.768 152.3 282.314 150.727C282.861 149.183 283.58 146.982 283.925 145.895C284.242 144.78 284.702 142.865 284.961 141.607C285.22 140.349 285.507 138.033 285.594 136.461C285.68 134.888 285.594 132.258 285.421 130.628C285.22 128.999 284.76 126.54 284.357 125.196C283.983 123.853 282.947 121.308 282.084 119.593C281.221 117.849 279.668 115.333 278.661 113.989C277.625 112.645 275.64 110.472 274.259 109.129C272.85 107.814 270.491 105.755 268.995 104.554C267.499 103.382 265.025 101.552 263.529 100.523C262.033 99.4938 259.789 98.0643 258.552 97.321C257.315 96.5777 254.928 95.2911 253.23 94.462C251.533 93.6329 248.541 92.2891 246.556 91.4886C244.571 90.7167 240.688 89.2872 237.926 88.3437C235.135 87.4002 230.734 86.0279 228.145 85.2846C225.527 84.5412 221.068 83.3976 218.22 82.7115C215.372 82.0253 211.172 81.1104 208.871 80.7102C206.569 80.3099 204.325 79.9096 203.836 79.8525C203.117 79.7381 205.044 81.768 214.624 91.2885Z" fill="white"/>
<path d="M348.048 111.301C345.689 111.816 342.583 112.588 341.144 113.017C339.677 113.417 336.656 114.332 334.441 115.075C332.226 115.79 329.148 116.877 327.595 117.477C326.041 118.106 323.711 119.135 322.416 119.764C321.122 120.422 319.166 121.537 318.044 122.223C316.951 122.938 315.081 124.253 313.872 125.168C312.693 126.054 310.708 127.741 309.471 128.884C308.263 129.999 306.565 132.001 305.702 133.287C304.839 134.545 303.833 136.375 303.43 137.318C303.056 138.262 302.538 139.749 302.337 140.606C302.106 141.55 301.934 143.608 301.934 145.752C301.963 148.697 302.106 149.812 302.711 152.042C303.142 153.529 303.746 155.502 304.091 156.417L304.724 158.075L307.198 155.759C308.579 154.501 319.54 143.751 331.565 131.886C345.977 117.677 353.227 110.329 352.853 110.329C352.536 110.329 350.379 110.787 348.048 111.301Z" fill="white"/>
<path d="M285.133 177.23C284.414 177.373 283.033 177.745 282.027 178.088C281.048 178.402 279.265 179.289 278.143 180.061C276.992 180.804 275.496 181.976 274.835 182.662C274.202 183.348 273.137 184.664 272.476 185.607C271.843 186.522 270.922 188.295 270.433 189.524C269.973 190.753 269.57 192.011 269.57 192.354C269.57 192.669 269.11 193.441 268.535 194.07C267.844 194.813 267.067 195.328 266.291 195.528C265.658 195.699 263.097 196.414 260.652 197.129C258.207 197.844 254.87 198.959 253.259 199.588C251.619 200.217 250.296 200.846 250.296 200.989C250.296 201.103 250.584 201.217 250.958 201.217C251.303 201.217 253.834 201.675 256.567 202.218C259.3 202.761 263.903 203.819 266.78 204.534C269.657 205.248 273.828 206.335 276.043 206.964C278.258 207.593 281.307 208.508 282.803 208.994C284.299 209.48 287.234 210.423 289.276 211.138C291.347 211.853 295.749 213.482 299.057 214.797C302.394 216.113 307.313 218.143 309.989 219.343C312.693 220.573 317.871 223.06 321.496 224.918C325.149 226.777 329.867 229.293 331.996 230.522C334.125 231.723 337.807 233.953 340.195 235.468C342.554 236.955 345.287 238.613 346.236 239.156C347.156 239.699 348.969 240.872 350.263 241.729C351.529 242.616 354.636 244.874 357.168 246.79C359.699 248.677 362.95 251.135 364.36 252.25C365.798 253.365 368.56 255.681 370.545 257.368C372.53 259.083 376.384 262.514 379.117 265.03C381.85 267.546 386.424 272.035 389.244 275.008C392.092 277.982 395.774 281.956 397.442 283.842C399.111 285.758 400.463 287.187 400.463 287.016C400.463 286.873 399.629 284.386 398.622 281.498C397.615 278.61 396.119 274.665 395.285 272.692C394.479 270.72 392.724 266.889 391.372 264.144C390.049 261.399 388.323 258.14 387.546 256.853C386.798 255.567 385.935 254.08 385.648 253.537C385.36 252.994 383.835 250.535 382.253 248.105C380.671 245.675 378.197 242.13 376.787 240.243C375.349 238.356 373.076 235.525 371.753 233.953C370.401 232.38 366.747 228.578 363.669 225.49C360.562 222.431 356.276 218.514 354.147 216.827C352.018 215.141 348.25 212.424 345.776 210.766C343.302 209.137 341.173 207.793 341 207.793C340.856 207.793 340.281 207.45 339.734 207.05C339.188 206.649 336.743 205.306 334.297 204.105C331.852 202.875 327.911 201.103 325.523 200.131C323.164 199.187 319.655 197.958 317.756 197.415C315.857 196.843 313.239 196.128 311.945 195.785C310.564 195.413 309.27 194.87 308.867 194.499C308.435 194.098 307.917 193.04 307.543 191.754C307.198 190.582 306.45 188.666 305.875 187.494C305.069 185.836 304.206 184.749 302.221 182.719C299.978 180.461 299.23 179.918 297.072 178.888C295.576 178.202 293.62 177.545 292.325 177.316C291.117 177.116 289.305 176.944 288.269 176.944C287.234 176.973 285.824 177.087 285.133 177.23Z" fill="white"/>
<path d="M201.103 277.81C198.485 278.096 194.429 278.61 192.041 278.954C189.683 279.325 185.598 280.04 182.98 280.612C180.362 281.155 178.089 281.755 177.888 281.898C177.686 282.041 177.14 283.471 176.622 285.072C176.133 286.673 175.5 288.76 175.184 289.703C174.896 290.647 174.119 293.534 173.486 296.136C172.853 298.738 172.019 302.655 171.616 304.885C171.242 307.086 170.638 310.946 170.322 313.462C169.977 315.949 169.574 319.151 169.43 320.581C169.286 321.982 169.056 326.184 168.912 329.872C168.797 333.589 168.797 339.422 168.912 342.881C169.056 346.34 169.43 351.601 169.747 354.603C170.092 357.576 170.667 361.979 171.041 364.381C171.444 366.754 172.077 370.213 172.479 372.014C172.853 373.844 173.515 376.646 173.918 378.275C174.321 379.876 175.011 382.307 175.443 383.679L176.19 386.138L176.938 385.652C177.341 385.366 179.355 384.165 181.426 382.964C183.497 381.792 188.446 379.19 192.415 377.218C196.385 375.245 201.794 372.672 204.469 371.528C207.144 370.356 212.092 368.326 215.487 367.04C218.882 365.753 223.369 364.123 225.412 363.409C227.483 362.722 231.482 361.464 234.33 360.607C237.178 359.749 243.19 358.148 247.707 357.033C252.223 355.918 259.041 354.431 262.867 353.745C266.693 353.03 272.735 352.087 276.244 351.601C279.783 351.143 284.357 350.572 286.399 350.343C288.471 350.086 292.872 349.685 296.18 349.457C299.517 349.199 307.342 348.913 313.585 348.828C320.834 348.713 327.221 348.799 331.277 348.999C334.758 349.199 339.878 349.542 342.64 349.771C345.402 350 350.494 350.514 353.917 350.886C357.369 351.286 363.209 352.058 366.862 352.602C370.545 353.145 375.895 354.06 378.743 354.631C381.591 355.203 385.935 356.09 388.38 356.633C390.826 357.205 395.918 358.405 399.686 359.349C403.484 360.292 406.619 361.007 406.705 360.95C406.763 360.864 406.993 359.234 407.223 357.29C407.425 355.346 407.712 352.373 407.799 350.715L408 347.713L399.859 342.252C395.371 339.279 389.33 335.305 386.424 333.475C383.519 331.645 379.434 329.129 377.363 327.9C375.262 326.67 371.177 324.326 368.243 322.668C365.309 321.01 361.08 318.665 358.807 317.464C356.563 316.264 351.443 313.662 347.444 311.689C343.474 309.688 337.577 306.857 334.384 305.399C331.19 303.941 327.508 302.283 326.185 301.768C324.862 301.225 322.042 300.053 319.914 299.138C317.785 298.252 313.585 296.594 310.564 295.45C307.572 294.278 301.358 292.134 296.756 290.647C292.182 289.132 287.521 287.645 286.399 287.33C285.306 287.016 282.516 286.244 280.214 285.586C277.913 284.957 273.454 283.842 270.289 283.156C267.125 282.442 262.407 281.498 259.789 281.012C257.171 280.555 252.77 279.84 250.008 279.44C247.247 279.039 242.442 278.439 239.364 278.096C234.531 277.553 231.827 277.467 219.802 277.381C207.864 277.324 205.159 277.381 201.103 277.81Z" fill="white"/>
<path d="M374.284 395.801C373.421 395.858 368.502 396.173 363.353 396.487C358.203 396.802 352.651 397.202 350.983 397.345C349.314 397.516 345.891 397.917 343.359 398.231C340.828 398.546 336.426 399.175 333.578 399.661C330.73 400.118 326.386 400.919 323.941 401.376C321.496 401.862 316.174 403.063 312.146 404.092C308.119 405.121 303.516 406.322 301.934 406.78C300.352 407.237 296.612 408.438 293.591 409.467C290.599 410.468 286.457 411.954 284.386 412.726C282.343 413.527 279.495 414.642 278.057 415.214C276.647 415.814 272.936 417.472 269.858 418.902C266.78 420.36 262.033 422.733 259.358 424.191C256.654 425.649 254.208 427.079 253.892 427.364C253.575 427.65 252.914 428.079 252.453 428.308C251.964 428.537 249.864 429.823 247.764 431.138C245.693 432.425 242.068 434.855 239.738 436.513C237.379 438.172 233.87 440.773 231.885 442.346C229.9 443.918 226.304 446.92 223.887 449.007C221.5 451.123 219.515 452.981 219.515 453.124C219.515 453.267 220.493 454.182 221.701 455.154C222.909 456.155 225.441 458.07 227.311 459.443C229.18 460.786 232.46 462.959 234.589 464.217C236.746 465.475 240.572 467.562 243.162 468.849C245.751 470.135 249.605 471.851 251.763 472.708C253.892 473.537 257.402 474.738 259.53 475.367C261.659 475.996 264.219 476.711 265.255 476.968C266.291 477.226 267.528 477.683 268.017 477.998C268.678 478.398 269.369 479.484 270.836 482.4C272.389 485.545 273.08 486.603 274.547 488.09C275.525 489.062 277.136 490.434 278.143 491.092C279.15 491.749 280.905 492.636 282.027 493.036C283.753 493.636 284.76 493.808 287.982 493.894C291.002 494.008 292.268 493.922 293.735 493.551C294.771 493.293 296.583 492.607 297.762 492.064C299.46 491.263 300.467 490.491 302.365 488.576C304.063 486.889 305.156 485.488 305.875 484.116C306.45 483.001 307.198 481.371 307.543 480.485C307.917 479.456 308.464 478.626 308.953 478.255C309.413 477.94 310.996 477.368 312.463 476.968C313.959 476.568 317.555 475.453 320.489 474.509C323.423 473.595 327.508 472.079 329.579 471.164C331.651 470.221 335.017 468.62 337.03 467.534C339.073 466.476 342.554 464.446 344.769 463.045C347.013 461.615 350.522 459.214 352.594 457.641C354.665 456.097 357.887 453.439 359.786 451.723C361.655 450.008 365.021 446.749 367.236 444.49C369.451 442.231 372.788 438.515 374.601 436.227C376.442 433.94 378.427 431.367 379.031 430.509C379.635 429.652 381.304 427.193 382.742 425.077C384.152 422.962 386.482 419.159 387.891 416.643C389.301 414.127 391.257 410.468 392.178 408.495C393.127 406.522 394.681 403.12 395.601 400.919C396.522 398.717 397.299 396.773 397.299 396.602C397.299 396.401 396.177 396.23 394.307 396.116C392.667 396.001 387.834 395.858 383.605 395.801C379.347 395.744 375.147 395.744 374.284 395.801Z" fill="white"/>
</svg>
