<?xml version="1.0" encoding="UTF-8" standalone="no"?>
<svg
   version="1.0"
   width="446pt"
   height="648pt"
   viewBox="0 0 446 648"
   preserveAspectRatio="xMidYMid meet"
   id="svg40"
   sodipodi:docname="frsh-APP-ICON.svg"
   inkscape:version="1.1 (c68e22c387, 2021-05-23)"
   xmlns:inkscape="http://www.inkscape.org/namespaces/inkscape"
   xmlns:sodipodi="http://sodipodi.sourceforge.net/DTD/sodipodi-0.dtd"
   xmlns="http://www.w3.org/2000/svg"
   xmlns:svg="http://www.w3.org/2000/svg">
  <defs
     id="defs44" />
  <sodipodi:namedview
     id="namedview42"
     pagecolor="#505050"
     bordercolor="#ffffff"
     borderopacity="1"
     inkscape:pageshadow="0"
     inkscape:pageopacity="0"
     inkscape:pagecheckerboard="1"
     inkscape:document-units="pt"
     showgrid="false"
     inkscape:zoom="0.14959491"
     inkscape:cx="-758.71567"
     inkscape:cy="1026.1044"
     inkscape:window-width="1360"
     inkscape:window-height="696"
     inkscape:window-x="0"
     inkscape:window-y="0"
     inkscape:window-maximized="1"
     inkscape:current-layer="g38" />
  <metadata
     id="metadata2">
Created by POTRACE VERSION, written by Peter Selinger 2001-2007
</metadata>
  <g
     transform="translate(0,648) scale(0.043171,-0.043171)"
     fill="#000000"
     stroke="none"
     id="g38">
    <path
       d="M2390 14265 c223 -224 827 -825 1342 -1337 l938 -930 19 44 c10 24 35 89 54 144 19 54 44 131 56 169 11 39 27 106 36 150 9 44 19 125 22 180 3 55 0 147 -6 204 -7 57 -23 143 -37 190 -13 47 -49 136 -79 196 -30 61 -84 149 -119 196 -36 47 -105 123 -153 170 -49 46 -131 118 -183 160 -52 41 -138 105 -190 141 -52 36 -130 86 -173 112 -43 26 -126 71 -185 100 -59 29 -163 76 -232 104 -69 27 -204 77 -300 110 -97 33 -250 81 -340 107 -91 26 -246 66 -345 90 -99 24 -245 56 -325 70 -80 14 -158 28 -175 30 -25 4 42 -67 375 -400z"
       id="path4"
       style="fill:#fff;fill-opacity:0.8" />
    <path
       d="M1877 14493 c3 -21 21 -121 39 -223 19 -102 57 -277 85 -390 28 -113 75 -277 104 -365 29 -88 74 -214 100 -280 26 -66 79 -187 116 -269 37 -81 96 -198 130 -260 33 -61 90 -156 126 -211 36 -55 94 -136 128 -180 34 -44 114 -130 177 -191 63 -60 158 -141 211 -178 53 -37 139 -90 190 -116 51 -27 134 -63 184 -79 51 -17 143 -38 205 -47 82 -12 144 -15 228 -10 63 3 158 15 210 25 52 11 139 33 192 50 53 17 131 47 174 67 l78 35 -1334 1327 c-733 730 -1336 1328 -1341 1330 -4 2 -5 -14 -2 -35z"
       id="path6"
       style="fill:#fff;fill-opacity:0.6" />
    <path
       d="M7028 13565 c-82 -18 -190 -45 -240 -60 -51 -14 -156 -46 -233 -72 -77 -25 -184 -63 -238 -84 -54 -22 -135 -58 -180 -80 -45 -23 -113 -62 -152 -86 -38 -25 -103 -71 -145 -103 -41 -31 -110 -90 -153 -130 -42 -39 -101 -109 -131 -154 -30 -44 -65 -108 -79 -141 -13 -33 -31 -85 -38 -115 -8 -33 -14 -105 -14 -180 1 -103 6 -142 27 -220 15 -52 36 -121 48 -153 l22 -58 86 81 c48 44 429 420 847 835 501 497 753 754 740 754 -11 0 -86 -16 -167 -34z"
       id="path8"
       style="fill:#fff;fill-opacity:0.8" />
    <path
       d="M6485 12634 c-658 -653 -837 -835 -825 -843 8 -5 49 -21 91 -35 42 -14 116 -32 164 -41 48 -8 116 -15 150 -15 35 0 97 6 138 14 41 8 108 28 150 44 42 16 116 56 164 88 48 32 127 96 175 142 48 46 115 124 150 173 35 49 91 140 125 201 35 62 90 176 122 253 33 77 78 194 100 259 23 66 59 192 80 280 22 89 44 191 51 228 7 37 10 71 9 76 -2 6 -382 -365 -844 -824z"
       id="path10"
       style="fill:#fff;fill-opacity:0.6" />
    <path
       d="M4841 11259 c-25 -5 -73 -18 -108 -30 -34 -11 -96 -42 -135 -69 -40 -26 -92 -67 -115 -91 -22 -24 -59 -70 -82 -103 -22 -32 -54 -94 -71 -137 -16 -43 -30 -87 -30 -99 0 -11 -16 -38 -36 -60 -24 -26 -51 -44 -78 -51 -22 -6 -111 -31 -196 -56 -85 -25 -201 -64 -257 -86 -57 -22 -103 -44 -103 -49 0 -4 10 -8 23 -8 12 0 100 -16 195 -35 95 -19 255 -56 355 -81 100 -25 245 -63 322 -85 77 -22 183 -54 235 -71 52 -17 154 -50 225 -75 72 -25 225 -82 340 -128 116 -46 287 -117 380 -159 94 -43 274 -130 400 -195 127 -65 291 -153 365 -196 74 -42 202 -120 285 -173 82 -52 177 -110 210 -129 32 -19 95 -60 140 -90 44 -31 152 -110 240 -177 88 -66 201 -152 250 -191 50 -39 146 -120 215 -179 69 -60 203 -180 298 -268 95 -88 254 -245 352 -349 99 -104 227 -243 285 -309 58 -67 105 -117 105 -111 0 5 -29 92 -64 193 -35 101 -87 239 -116 308 -28 69 -89 203 -136 299 -46 96 -106 210 -133 255 -26 45 -56 97 -66 116 -10 19 -63 105 -118 190 -55 85 -141 209 -190 275 -50 66 -129 165 -175 220 -47 55 -174 188 -281 296 -108 107 -257 244 -331 303 -74 59 -205 154 -291 212 -86 57 -160 104 -166 104 -5 0 -25 12 -44 26 -19 14 -104 61 -189 103 -85 43 -222 105 -305 139 -82 33 -204 76 -270 95 -66 20 -157 45 -202 57 -48 13 -93 32 -107 45 -15 14 -33 51 -46 96 -12 41 -38 108 -58 149 -28 58 -58 96 -127 167 -78 79 -104 98 -179 134 -52 24 -120 47 -165 55 -42 7 -105 13 -141 13 -36 -1 -85 -5 -109 -10z"
       id="path12"
       style="fill:#fff;fill-opacity:0.8" />
    <path
       d="M3031 11222 c-19 -10 -43 -34 -53 -53 -10 -18 -18 -47 -18 -64 0 -17 8 -46 18 -64 10 -19 34 -43 53 -53 18 -10 45 -18 59 -18 14 0 41 8 59 18 19 10 43 34 53 53 10 18 18 47 18 64 0 17 -8 46 -18 64 -10 19 -34 43 -53 53 -18 10 -45 18 -59 18 -14 0 -41 -8 -59 -18z"
       id="path14"
       style="fill:#fff;fill-opacity:0.8" />
    <path
       d="M2337 10430 c-20 -5 -56 -19 -79 -31 -22 -11 -63 -43 -90 -70 -27 -27 -61 -75 -76 -107 -23 -48 -27 -70 -27 -147 0 -77 4 -99 27 -147 15 -32 50 -81 78 -108 27 -28 76 -63 108 -78 48 -23 70 -27 147 -27 77 0 99 4 147 27 32 15 81 50 108 78 28 27 63 76 78 108 23 48 27 70 27 147 0 77 -4 99 -27 147 -15 32 -50 81 -78 108 -27 28 -75 63 -105 76 -38 18 -78 27 -128 29 -39 3 -89 0 -110 -5z"
       id="path16"
       style="fill:#fff;fill-opacity:0.8" />
    <path
       d="M4160 9333 c-30 -2 -140 -10 -245 -18 -104 -9 -302 -29 -440 -46 -137 -16 -324 -41 -415 -55 -91 -14 -248 -41 -350 -60 -102 -19 -255 -51 -340 -70 -85 -19 -220 -53 -300 -76 -80 -22 -191 -58 -248 -80 -95 -37 -105 -44 -141 -91 -21 -29 -60 -88 -88 -132 -28 -45 -82 -141 -121 -215 -39 -74 -102 -207 -140 -295 -38 -88 -88 -211 -111 -274 -23 -62 -40 -116 -37 -118 3 -3 62 6 133 20 70 14 189 35 263 46 74 11 224 30 332 41 165 17 267 20 616 20 341 0 459 -4 638 -20 120 -11 271 -27 334 -36 63 -8 203 -29 310 -45 l194 -31 256 36 c140 19 296 40 345 45 50 6 167 15 260 22 112 8 314 10 590 6 231 -3 519 -13 640 -21 121 -9 274 -21 340 -27 66 -6 211 -26 323 -45 112 -19 279 -50 370 -70 92 -19 248 -55 347 -79 99 -24 297 -76 440 -115 143 -39 379 -111 525 -160 146 -48 267 -86 269 -84 2 2 -29 41 -69 86 -40 46 -154 170 -253 276 -100 107 -244 253 -322 326 -77 73 -189 177 -250 231 -60 54 -162 141 -225 194 -63 53 -206 165 -318 249 -112 84 -247 181 -300 216 -53 35 -138 89 -188 120 -87 54 -97 58 -270 96 -98 21 -243 50 -321 65 -79 14 -232 39 -340 55 -109 16 -277 38 -373 49 -96 11 -263 27 -370 36 -107 8 -283 20 -390 25 -107 5 -265 9 -350 8 -85 -1 -180 -3 -210 -5z"
       id="path18"
       style="fill:#fff;fill-opacity:0.6" />
    <path
       d="M9649 7846 c-21 -7 -50 -23 -65 -35 -16 -13 -41 -41 -56 -63 -15 -22 -30 -59 -34 -83 -3 -24 -3 -62 1 -84 4 -22 19 -59 35 -82 15 -23 46 -54 69 -70 24 -15 62 -31 86 -35 24 -3 62 -3 84 1 22 4 59 19 82 35 23 15 54 46 69 69 16 23 31 60 35 82 4 22 4 60 1 84 -4 24 -19 62 -34 84 -15 22 -43 52 -62 66 -19 14 -50 30 -70 35 -19 5 -51 10 -70 10 -19 -1 -51 -7 -71 -14z"
       id="path20"
       style="fill:#fff;fill-opacity:0.8" />
    <path
       d="M1920 7741 c-91 -10 -232 -28 -315 -40 -82 -13 -224 -38 -315 -58 -91 -19 -170 -40 -177 -45 -7 -5 -26 -55 -44 -111 -17 -56 -39 -129 -50 -162 -10 -33 -37 -134 -59 -225 -22 -91 -51 -228 -65 -306 -13 -77 -34 -212 -45 -300 -12 -87 -26 -199 -31 -249 -5 -49 -13 -196 -18 -325 -4 -130 -4 -334 0 -455 5 -121 18 -305 29 -410 12 -104 32 -258 45 -342 14 -83 36 -204 50 -267 13 -64 36 -162 50 -219 14 -56 38 -141 53 -189 l26 -86 26 17 c14 10 84 52 156 94 72 41 244 132 382 201 138 69 326 159 419 199 93 41 265 112 383 157 118 45 274 102 345 127 72 24 211 68 310 98 99 30 308 86 465 125 157 39 394 91 527 115 133 25 343 58 465 75 123 16 282 36 353 44 72 9 225 23 340 31 116 9 388 19 605 22 252 4 474 1 615 -6 121 -7 299 -19 395 -27 96 -8 273 -26 392 -39 120 -14 323 -41 450 -60 128 -19 314 -51 413 -71 99 -20 250 -51 335 -70 85 -20 262 -62 393 -95 132 -33 241 -58 244 -56 2 3 10 60 18 128 7 68 17 172 20 230 l7 105 -283 191 c-156 104 -366 243 -467 307 -101 64 -243 152 -315 195 -73 43 -215 125 -317 183 -102 58 -249 140 -328 182 -78 42 -256 133 -395 202 -138 70 -343 169 -454 220 -111 51 -239 109 -285 127 -46 19 -144 60 -218 92 -74 31 -220 89 -325 129 -104 41 -320 116 -480 168 -159 53 -321 105 -360 116 -38 11 -135 38 -215 61 -80 22 -235 61 -345 85 -110 25 -274 58 -365 75 -91 16 -244 41 -340 55 -96 14 -263 35 -370 47 -168 19 -262 22 -680 25 -415 2 -509 0 -650 -15z"
       id="path22"
       style="fill:#fff;fill-opacity:0.8" />
    <path
       d="M8422 6910 c-18 -11 -41 -34 -52 -52 -11 -18 -20 -49 -20 -68 0 -19 9 -50 20 -68 11 -18 34 -41 52 -52 18 -11 49 -20 68 -20 19 0 50 9 68 20 18 11 41 34 52 52 11 18 20 49 20 68 0 19 -9 50 -20 68 -11 18 -34 41 -52 52 -18 11 -49 20 -68 20 -19 0 -50 -9 -68 -20z"
       id="path24"
       style="fill:#fff;fill-opacity:0.8" />
    <path
       d="M9573 6746 c-28 -7 -77 -26 -109 -42 -31 -16 -83 -54 -114 -85 -33 -33 -69 -83 -87 -120 -17 -35 -36 -88 -42 -117 -6 -29 -11 -73 -11 -97 0 -24 5 -68 11 -97 6 -29 25 -82 42 -117 18 -37 54 -87 88 -120 33 -34 83 -70 120 -88 35 -17 88 -36 117 -42 29 -6 73 -11 97 -11 24 0 68 5 97 11 29 6 82 25 117 42 37 18 87 54 120 88 34 33 70 83 88 120 17 35 36 88 42 117 6 29 11 73 11 97 0 24 -5 68 -11 97 -6 29 -25 82 -42 117 -18 37 -54 87 -88 120 -33 34 -83 70 -120 88 -35 17 -88 36 -117 42 -29 6 -76 11 -105 10 -29 0 -75 -6 -104 -13z"
       id="path26"
       style="fill:#fff;fill-opacity:0.8" />
    <path
       d="M5460 5080 c-91 -5 -214 -13 -275 -19 -101 -8 -120 -13 -230 -61 -66 -29 -199 -92 -296 -141 -97 -48 -253 -133 -347 -188 -93 -55 -228 -138 -298 -184 -71 -46 -187 -125 -259 -177 -71 -51 -187 -137 -256 -191 -69 -53 -175 -139 -235 -189 -60 -51 -172 -150 -249 -220 -77 -70 -199 -188 -270 -261 -72 -74 -175 -186 -231 -249 -55 -63 -140 -164 -188 -225 -48 -60 -134 -180 -191 -265 -57 -85 -131 -207 -164 -271 -34 -64 -61 -121 -61 -128 0 -6 95 -120 211 -254 117 -133 232 -263 256 -289 l45 -46 146 130 c80 71 215 185 299 253 84 67 224 172 311 233 86 61 222 151 302 201 80 50 176 110 213 133 38 24 124 88 190 143 67 55 175 140 240 188 64 48 190 136 280 196 89 59 223 144 297 188 74 44 189 109 255 145 66 36 201 106 300 156 99 49 277 132 395 185 118 52 294 127 391 166 97 38 277 106 400 150 123 43 303 104 399 134 96 31 256 79 355 107 99 29 297 80 440 115 143 35 340 80 437 100 98 19 260 49 360 65 100 17 192 30 205 30 13 0 23 4 23 8 0 5 -73 25 -162 45 -90 20 -248 54 -353 76 -104 22 -291 56 -415 75 -124 20 -317 47 -430 60 -113 14 -279 32 -370 41 -91 8 -228 20 -305 26 -77 6 -333 12 -570 14 -236 2 -504 -1 -595 -5z"
       id="path28"
       style="fill:#fff;fill-opacity:0.6" />
    <path
       d="M285 4016 c-16 -8 -42 -26 -57 -42 -15 -16 -34 -46 -42 -66 -9 -21 -16 -52 -16 -70 0 -18 9 -51 19 -73 10 -22 31 -52 47 -67 16 -15 42 -32 57 -37 16 -6 43 -11 62 -11 19 0 46 5 62 11 15 5 41 22 57 37 16 15 37 45 47 67 10 22 19 56 19 75 0 19 -9 53 -19 75 -10 22 -31 52 -47 67 -16 15 -42 32 -57 37 -16 6 -45 11 -65 11 -20 -1 -50 -7 -67 -14z"
       id="path30"
       style="fill:#fff;fill-opacity:0.8" />
    <path
       d="M7940 3614 c-30 -2 -201 -13 -380 -24 -179 -11 -372 -25 -430 -30 -58 -6 -177 -20 -265 -31 -88 -11 -241 -33 -340 -50 -99 -16 -250 -44 -335 -60 -85 -17 -270 -59 -410 -95 -140 -36 -300 -78 -355 -94 -55 -16 -185 -58 -290 -94 -104 -35 -248 -87 -320 -114 -71 -28 -170 -67 -220 -87 -49 -21 -178 -79 -285 -129 -107 -51 -272 -134 -365 -185 -94 -51 -179 -101 -190 -111 -11 -10 -34 -25 -50 -33 -17 -8 -90 -53 -163 -99 -72 -45 -198 -130 -279 -188 -82 -58 -204 -149 -273 -204 -69 -55 -194 -160 -278 -233 -83 -74 -152 -139 -152 -144 0 -5 34 -37 76 -71 42 -35 130 -102 195 -150 65 -47 179 -123 253 -167 75 -44 208 -117 298 -162 90 -45 224 -105 299 -135 74 -29 196 -71 270 -93 74 -22 163 -47 199 -56 36 -9 79 -25 96 -36 23 -14 47 -52 98 -154 54 -110 78 -147 129 -199 34 -34 90 -82 125 -105 35 -23 96 -54 135 -68 60 -21 95 -27 207 -30 105 -4 149 -1 200 12 36 9 99 33 140 52 59 28 94 55 160 122 59 59 97 108 122 156 20 39 46 96 58 127 13 36 32 65 49 78 16 11 71 31 122 45 52 14 177 53 279 86 102 32 244 85 316 117 72 33 189 89 259 127 71 37 192 108 269 157 78 50 200 134 272 189 72 54 184 147 250 207 65 60 182 174 259 253 77 79 193 209 256 289 64 80 133 170 154 200 21 30 79 116 129 190 49 74 130 207 179 295 49 88 117 216 149 285 33 69 87 188 119 265 32 77 59 145 59 151 0 7 -39 13 -104 17 -57 4 -225 9 -372 11 -148 2 -294 2 -324 0z"
       id="path32"
       style="fill:#fff;fill-opacity:0.8" />
    <path
       d="M1346 3570 c-27 -11 -69 -39 -93 -62 -26 -26 -51 -63 -63 -96 -11 -29 -20 -73 -20 -97 0 -25 9 -68 20 -97 11 -29 38 -71 62 -95 26 -26 63 -51 96 -63 29 -11 71 -20 92 -20 22 0 63 9 92 20 29 11 71 38 95 62 26 26 51 63 63 96 11 29 20 73 20 97 0 25 -9 68 -20 97 -11 29 -38 71 -62 95 -26 26 -63 51 -96 63 -29 11 -72 20 -95 20 -23 -1 -64 -10 -91 -20z"
       id="path34"
       style="fill:#fff;fill-opacity:0.8" />
    <path
       d="M1149 2561 c-20 -20 -29 -39 -29 -61 0 -22 9 -41 29 -61 20 -20 39 -29 61 -29 22 0 41 9 61 29 20 20 29 39 29 61 0 22 -9 41 -29 61 -20 20 -39 29 -61 29 -22 0 -41 -9 -61 -29z"
       id="path36"
       style="fill:#fff;fill-opacity:0.8" />
  </g>
</svg>
