<svg width="610" height="417" xmlns="http://www.w3.org/2000/svg" xmlns:xlink="http://www.w3.org/1999/xlink" overflow="hidden"><defs><clipPath id="clip0"><path d="M-65 417 545 417 545 834-65 834Z" fill-rule="evenodd" clip-rule="evenodd"/></clipPath></defs><g clip-path="url(#clip0)" transform="translate(65 -417)"><path d="M446.761 833.39 446.761 642.504C446.761 602.586 430.26 582.627 397.254 582.627 364.249 582.627 347.747 602.586 347.747 642.504L347.747 833.39 250.412 833.39 250.412 642.504C250.412 602.586 234.193 582.627 201.753 582.627 168.749 582.627 152.246 602.586 152.246 642.504L152.246 833.39 55 833.39 55 631.235C55 589.586 69.4753 558.063 98.425 536.667 123.898 517.579 158.352 508.023 201.789 508 245.803 508 278.219 519.281 299.036 541.842 316.964 519.292 349.679 508.012 397.184 508 440.621 508 475.069 517.555 500.53 536.667 529.492 558.063 543.973 589.586 543.973 631.235L543.973 833.39Z" fill="#FFFFFF" fill-rule="evenodd"/><path d="M340.661 422.312 339.424 418C174.636 434.983 78.146 457.108-64 541.368L-62.7096 545.574-48.1624 545.114C-51.9096 577.455-49.5061 617.976-49.4709 618.488L-49.1523 629.817C-66.3509 678.521-49.0292 717.469-34.3228 753.114-34.2169 709.057-32.4315 673.184-44.9282 627.643-45.282 620.963-47.509 575.069-43.9736 545.026L-25.6086 544.443C1.20468 545.379 28.9201 546.688 55.698 546.793 53.9307 589.365 57.1649 604.475 57.1649 604.475 148.936 635.56 236.076 607.178 281.891 526.895 269.684 514.907 256.79 503.644 243.27 493.159Z" fill="#333333" fill-rule="evenodd"/></g></svg>