<?xml version="1.0" standalone="no"?>
<!DOCTYPE svg PUBLIC "-//W3C//DTD SVG 20010904//EN"
 "http://www.w3.org/TR/2001/REC-SVG-20010904/DTD/svg10.dtd">
<svg version="1.0" xmlns="http://www.w3.org/2000/svg"
 width="468pt" height="468pt" viewBox="0 0 468 468"
 preserveAspectRatio="xMidYMid meet">
    <metadata>2020 PERPETUAL TODAY. UNIVERSITY OF PERPETUAL HELP SYSTEM-GMA SHS. JOHN VINCENT CORCEGA. JODIE KATE NICOLE FRANCO.</metadata>
<g transform="translate(0,468) scale(0.015595,-0.015595)"
fill="#ffffff" stroke="none">
<path d="M14120 25050 c-162 -5 -443 -13 -625 -19 -181 -7 -476 -18 -655 -26
-179 -9 -444 -22 -590 -30 -146 -8 -368 -22 -495 -30 -126 -9 -408 -29 -625
-46 -217 -16 -566 -45 -775 -65 -209 -19 -528 -50 -710 -70 -181 -19 -460 -50
-620 -69 -159 -20 -409 -51 -555 -71 -146 -19 -402 -55 -570 -80 -168 -25
-451 -69 -630 -100 -179 -30 -433 -75 -565 -100 -132 -25 -346 -68 -475 -95
-129 -28 -345 -77 -480 -110 -135 -32 -350 -89 -477 -126 -132 -37 -233 -72
-233 -78 0 -6 51 -169 114 -361 62 -192 154 -468 204 -614 50 -146 129 -371
175 -500 47 -129 125 -343 175 -475 50 -132 134 -352 187 -490 53 -137 146
-371 205 -520 59 -148 171 -421 248 -605 77 -184 196 -465 265 -625 69 -159
179 -411 245 -560 66 -148 176 -394 245 -545 69 -151 179 -390 244 -530 66
-140 182 -385 258 -545 77 -159 277 -564 446 -900 168 -335 370 -734 449 -885
78 -151 237 -450 352 -664 116 -214 287 -527 380 -695 94 -168 257 -457 363
-641 106 -184 266 -459 355 -610 90 -151 240 -401 333 -555 94 -154 252 -408
350 -565 99 -157 185 -293 192 -303 11 -16 25 6 115 180 56 109 131 242 166
295 35 53 64 105 64 115 0 11 -32 51 -72 90 -40 39 -152 151 -248 249 -97 99
-226 239 -288 312 -62 73 -152 186 -200 250 -49 64 -127 173 -174 242 -47 69
-114 172 -149 230 -34 58 -73 130 -86 160 -12 30 -23 69 -23 87 0 20 10 43 26
62 21 25 33 31 66 31 27 0 74 -17 151 -53 62 -30 218 -110 347 -179 129 -69
307 -163 395 -210 88 -47 275 -145 415 -218 140 -73 358 -189 485 -258 126
-68 299 -167 385 -218 85 -51 171 -103 190 -115 34 -22 34 -21 -11 27 -25 27
-101 107 -167 178 -91 95 -123 137 -128 162 -3 19 -3 45 0 59 4 14 23 44 43
66 20 22 78 71 128 109 51 38 150 106 221 151 70 45 194 119 274 164 80 45
195 108 256 138 61 31 158 75 215 100 57 24 174 67 259 95 85 28 214 67 285
86 72 19 191 48 265 65 74 16 187 39 250 50 63 11 165 27 225 35 61 9 162 20
225 26 63 5 198 10 300 10 102 0 237 -5 300 -10 63 -5 183 -19 265 -31 83 -11
227 -36 320 -55 94 -19 233 -51 310 -71 77 -19 205 -55 285 -80 80 -25 197
-65 260 -90 63 -25 189 -82 280 -128 91 -45 226 -117 300 -159 74 -43 213
-129 308 -192 95 -64 204 -145 242 -181 47 -43 74 -78 81 -102 7 -25 7 -44 0
-63 -5 -14 -40 -59 -77 -100 -37 -40 -115 -122 -173 -182 l-106 -108 60 37
c33 21 98 61 145 90 47 28 162 94 255 147 94 52 285 156 425 230 140 74 332
175 425 223 94 49 285 150 425 225 140 76 342 181 447 234 149 74 202 96 233
96 30 0 47 -7 65 -25 18 -17 25 -35 25 -64 0 -22 -9 -62 -19 -89 -11 -27 -43
-89 -72 -138 -28 -49 -95 -152 -147 -229 -52 -77 -138 -198 -192 -270 -54 -71
-154 -195 -222 -275 -69 -80 -231 -253 -360 -385 l-235 -240 72 -110 c40 -61
124 -208 185 -328 62 -120 116 -215 120 -210 4 4 84 121 178 258 93 138 255
381 359 540 105 160 275 427 380 595 105 168 265 431 357 584 92 153 247 419
345 590 98 171 246 436 330 589 83 153 227 421 318 595 92 174 280 547 419
827 139 281 318 652 399 825 81 173 207 448 280 610 73 162 185 417 250 565
64 149 185 430 267 625 82 195 250 607 373 915 123 308 279 709 348 890 69
182 183 485 252 675 70 190 198 545 285 790 87 245 225 643 308 885 82 242
185 547 228 678 60 183 75 240 65 246 -7 5 -119 36 -249 69 -131 34 -361 90
-512 126 -151 36 -412 94 -580 130 -168 36 -438 90 -600 121 -162 30 -455 82
-650 115 -195 32 -494 79 -665 104 -170 25 -434 61 -585 80 -151 20 -392 49
-535 66 -143 16 -420 45 -615 65 -195 19 -463 44 -595 55 -132 11 -364 29
-515 40 -151 11 -430 28 -620 40 -190 11 -509 26 -710 35 -201 8 -507 20 -680
25 -173 6 -801 13 -1395 15 -594 2 -1213 0 -1375 -5z m-193 -4525 l162 -55
358 0 358 -1 95 -134 c52 -74 121 -180 154 -235 32 -55 56 -103 53 -106 -3 -3
-41 13 -84 37 -43 23 -112 62 -154 86 l-76 43 -321 0 -321 0 -143 148 c-79 81
-170 175 -203 210 -32 34 -54 62 -49 62 5 0 82 -25 171 -55z m3383 -542 c0 -5
-7 -30 -16 -58 -10 -30 -16 -86 -16 -140 -1 -62 5 -102 16 -129 9 -22 28 -54
41 -72 14 -18 57 -54 96 -80 42 -28 112 -62 168 -81 53 -18 110 -33 128 -33
17 0 77 16 133 35 55 20 291 111 523 204 232 92 494 195 582 228 88 33 198 70
245 82 62 16 129 23 245 28 91 3 200 1 254 -5 79 -10 109 -19 190 -58 71 -35
110 -61 151 -103 30 -32 66 -77 79 -102 20 -37 25 -62 29 -161 3 -87 0 -135
-12 -190 -10 -40 -35 -116 -56 -168 -21 -52 -40 -88 -43 -80 -3 8 -10 42 -17
75 -7 33 -25 89 -41 123 -20 45 -50 85 -101 136 -53 53 -94 83 -148 109 -41
20 -110 43 -152 52 -42 8 -103 15 -135 15 -32 0 -101 -7 -153 -15 -52 -7 -126
-24 -165 -35 -38 -12 -108 -38 -155 -57 -47 -19 -98 -40 -115 -48 -16 -7 -93
-41 -170 -75 -77 -34 -178 -80 -225 -102 -47 -22 -96 -44 -110 -50 -13 -5 -60
-30 -103 -56 -56 -33 -93 -64 -127 -107 -26 -33 -75 -103 -110 -155 -34 -52
-82 -135 -107 -185 -25 -49 -55 -115 -65 -145 -14 -38 -22 -92 -25 -176 -5
-116 -4 -124 21 -180 15 -31 42 -77 61 -100 19 -23 56 -58 82 -77 27 -19 75
-48 108 -66 l60 -31 -40 0 c-22 0 -95 5 -162 10 -67 5 -154 16 -193 24 -40 9
-103 30 -141 47 -52 24 -86 49 -133 99 -51 55 -66 78 -76 120 -8 34 -11 90 -7
159 3 71 12 127 27 170 12 36 57 140 101 233 43 93 79 173 79 177 0 5 -51 26
-112 46 -62 20 -151 55 -196 76 -46 21 -113 59 -148 84 -35 26 -82 70 -103 98
-22 29 -47 71 -56 95 -13 32 -16 61 -13 113 4 56 14 87 46 152 23 46 73 120
112 167 40 47 90 104 113 128 23 23 45 42 49 42 4 0 8 -3 8 -7z m-5689 -39
c46 -14 145 -49 219 -76 74 -28 164 -64 200 -80 36 -16 119 -57 185 -90 66
-33 161 -84 211 -113 50 -30 138 -89 195 -131 57 -42 160 -133 229 -203 84
-84 139 -150 167 -198 23 -39 50 -98 59 -130 9 -32 17 -93 17 -138 0 -59 -5
-95 -22 -136 -12 -32 -40 -86 -63 -120 -22 -35 -68 -91 -102 -124 -34 -33 -95
-85 -136 -116 -41 -31 -106 -74 -145 -96 -38 -22 -108 -60 -155 -85 -47 -25
-136 -71 -198 -103 l-114 -58 -46 34 c-26 18 -139 98 -252 177 -174 123 -208
143 -232 138 -16 -3 -79 -31 -141 -62 -61 -31 -134 -69 -162 -84 -27 -15 -81
-44 -120 -65 -38 -21 -109 -60 -158 -87 -48 -26 -91 -48 -95 -48 -5 0 -71 25
-148 56 -76 30 -211 90 -299 133 -88 44 -194 101 -235 128 -41 27 -109 77
-151 111 -42 34 -102 92 -132 130 -31 38 -68 95 -83 126 -24 54 -26 65 -22
174 4 108 6 122 36 179 17 34 53 88 78 120 26 32 79 89 118 127 39 39 114 104
167 146 53 42 134 101 180 132 46 30 131 82 189 115 58 33 141 79 185 101 44
22 143 67 220 100 77 34 190 79 250 100 61 22 117 43 125 46 8 3 33 4 56 1 22
-2 78 -16 125 -31z m2128 -31 c-8 -27 -14 -91 -14 -148 1 -89 4 -107 28 -157
16 -33 48 -75 74 -98 26 -22 69 -54 98 -70 28 -16 100 -46 160 -66 102 -34
110 -35 144 -21 20 8 243 102 496 209 253 107 546 229 650 271 105 41 226 84
270 95 44 11 114 26 156 32 46 8 132 10 215 8 115 -4 153 -10 220 -32 46 -14
115 -48 157 -75 47 -31 93 -72 121 -108 25 -32 54 -80 63 -108 13 -37 18 -81
18 -170 0 -102 -4 -134 -28 -214 -16 -51 -40 -121 -55 -154 l-28 -61 -21 87
c-12 49 -33 113 -47 143 -14 31 -53 83 -88 120 -34 36 -95 85 -134 110 -47 29
-99 51 -155 65 -73 19 -103 21 -249 16 -140 -4 -178 -9 -253 -31 -49 -14 -116
-38 -150 -52 -34 -14 -71 -29 -82 -34 -11 -5 -77 -36 -147 -69 -71 -33 -128
-62 -128 -66 0 -3 28 -18 63 -34 34 -16 169 -71 299 -122 131 -52 238 -96 238
-99 0 -3 -19 -17 -42 -31 -24 -15 -101 -64 -173 -110 -71 -47 -151 -97 -178
-112 -26 -16 -45 -32 -42 -36 2 -5 47 -39 98 -75 52 -37 108 -84 126 -106 18
-22 39 -57 47 -77 9 -20 16 -66 16 -103 0 -52 -6 -78 -26 -118 -14 -28 -54
-81 -88 -118 -35 -37 -98 -93 -141 -126 -42 -32 -114 -82 -160 -110 -45 -28
-109 -66 -142 -85 l-60 -35 80 84 c45 46 97 103 117 128 19 25 45 64 57 88 12
24 25 65 28 91 4 36 0 59 -17 99 -13 31 -40 68 -65 90 -23 20 -86 59 -139 85
-53 27 -128 59 -166 73 -38 13 -76 24 -84 24 -8 0 -17 4 -20 9 -3 5 67 65 156
133 89 67 191 147 226 175 l64 53 -48 21 c-27 11 -141 52 -254 90 l-205 70
-65 -30 c-36 -16 -87 -39 -115 -51 -27 -13 -79 -36 -115 -52 -36 -17 -99 -45
-140 -64 -41 -19 -83 -39 -92 -44 -13 -7 -40 -1 -100 21 -45 16 -120 48 -166
69 -46 22 -112 59 -145 84 -34 24 -87 70 -118 103 -31 32 -67 79 -79 103 -14
28 -25 70 -28 111 -2 37 1 91 8 120 7 30 23 78 36 108 13 29 45 83 71 120 26
36 81 101 122 144 41 42 76 75 79 72 3 -2 -1 -26 -9 -52z"/>
<path d="M11380 19687 c-52 -24 -122 -58 -155 -76 -33 -18 -98 -56 -145 -84
-47 -28 -139 -91 -205 -141 -66 -50 -164 -134 -219 -186 -54 -52 -130 -135
-168 -185 -39 -49 -79 -107 -91 -130 -16 -31 -22 -63 -25 -142 -3 -83 0 -115
17 -170 12 -39 45 -106 79 -158 32 -49 83 -115 113 -146 l54 -57 415 234 c228
128 440 247 470 263 l55 30 404 -300 c222 -164 407 -299 411 -299 5 0 36 31
69 68 34 38 79 93 102 123 22 30 51 74 64 99 12 25 32 76 44 114 11 37 21 94
21 125 0 31 -6 79 -14 106 -7 28 -23 70 -36 95 -12 25 -46 77 -75 115 -29 39
-90 109 -136 156 -46 47 -127 118 -179 158 -52 41 -129 96 -170 124 -41 28
-122 78 -180 110 -58 32 -145 78 -195 102 -49 24 -118 55 -152 69 -34 14 -66
26 -70 26 -4 0 -51 -19 -103 -43z"/>
<path d="M2664 20898 c3 -18 17 -103 31 -188 14 -85 37 -202 51 -260 13 -58
50 -197 80 -310 30 -113 78 -281 105 -373 28 -92 66 -211 85 -265 19 -53 59
-147 89 -209 29 -62 71 -138 92 -170 21 -32 72 -94 113 -137 41 -44 119 -112
172 -152 53 -39 137 -97 186 -127 49 -30 120 -71 158 -90 38 -19 116 -50 174
-70 58 -19 218 -69 355 -110 138 -42 351 -105 475 -141 124 -35 578 -167 1010
-291 432 -125 889 -257 1015 -295 127 -38 306 -94 400 -124 93 -30 171 -54
172 -52 2 2 -47 108 -108 237 -61 129 -176 374 -255 546 -79 171 -203 444
-275 605 -73 161 -208 468 -301 682 -92 214 -170 391 -171 393 -2 1 -821 212
-1821 468 -999 256 -1821 465 -1827 465 -6 0 -8 -14 -5 -32z"/>
<path d="M26730 20765 c-355 -90 -1156 -294 -1780 -454 -624 -160 -1143 -295
-1153 -299 -12 -5 -66 -128 -166 -377 -82 -204 -210 -518 -286 -700 -75 -181
-211 -499 -300 -705 -90 -206 -191 -435 -224 -509 -34 -74 -61 -137 -61 -142
0 -4 33 3 73 17 39 14 191 60 337 104 146 43 672 196 1170 340 498 144 1018
295 1155 335 138 41 322 96 410 124 88 27 192 61 230 75 39 15 104 45 145 67
41 23 131 78 200 124 69 46 160 115 202 152 43 37 103 100 133 138 33 41 87
132 130 220 48 96 96 215 135 331 33 99 91 297 131 439 39 143 84 314 100 381
16 67 42 201 59 298 16 97 30 183 30 191 0 8 -6 15 -12 14 -7 0 -303 -74 -658
-164z"/>
<path d="M3730 18174 c-272 -7 -742 -20 -1045 -29 -302 -9 -707 -22 -900 -30
-192 -8 -412 -18 -488 -21 -76 -4 -140 -11 -143 -15 -3 -5 10 -43 27 -86 18
-43 155 -323 305 -623 149 -300 308 -613 352 -697 45 -83 112 -200 149 -260
37 -59 101 -153 142 -208 40 -55 99 -129 130 -164 31 -36 83 -85 116 -109 33
-24 103 -66 156 -92 52 -27 124 -60 159 -74 34 -14 95 -35 134 -45 39 -11 118
-27 176 -35 58 -8 191 -20 295 -25 105 -6 408 -16 674 -21 266 -6 485 -10 487
-8 2 2 -29 53 -68 113 -39 61 -149 233 -246 384 -96 151 -196 310 -221 355
-26 45 -55 100 -64 124 -10 24 -20 69 -23 101 -5 44 -2 67 11 95 10 20 36 52
59 70 22 19 60 43 83 55 l42 21 1798 1 c989 0 1817 4 1840 7 l42 7 -87 175
-87 175 -235 77 c-129 42 -334 107 -455 143 -121 37 -587 172 -1035 301 -448
130 -907 262 -1019 295 l-204 59 -181 -1 c-100 -1 -404 -8 -676 -15z"/>
<path d="M24965 18046 c-269 -79 -726 -212 -1015 -296 -289 -83 -635 -185
-770 -225 -135 -41 -308 -96 -385 -122 l-139 -48 -91 -196 -92 -196 686 -6
c377 -4 1127 -7 1666 -7 539 0 1039 -3 1110 -6 111 -5 136 -10 170 -29 22 -13
58 -42 80 -65 l40 -41 0 -83 c0 -75 -3 -89 -37 -157 -21 -42 -91 -161 -156
-265 -65 -104 -174 -274 -242 -379 -68 -104 -138 -214 -157 -243 l-35 -54 299
7 c164 3 440 10 613 16 173 5 367 14 430 20 63 5 154 17 202 25 48 8 133 30
189 50 56 19 143 56 193 81 50 25 116 63 146 83 30 21 87 71 126 111 39 41
105 120 146 175 41 56 107 153 146 215 39 63 109 186 157 274 47 88 195 378
329 645 133 267 268 542 299 612 31 70 57 131 57 136 0 5 -69 12 -152 16 -84
4 -247 11 -363 16 -115 5 -424 16 -685 25 -261 8 -734 22 -1050 30 -316 8
-721 17 -900 19 l-325 5 -490 -143z"/>
<path d="M5855 16780 c-1690 -5 -1792 -6 -1822 -23 -18 -10 -33 -25 -33 -35 0
-9 13 -44 29 -77 15 -33 53 -100 83 -150 30 -49 128 -205 218 -345 90 -140
216 -334 280 -430 64 -97 166 -243 226 -325 60 -83 152 -204 205 -270 53 -66
132 -154 175 -196 43 -42 105 -93 137 -113 32 -21 89 -51 127 -67 38 -16 97
-35 132 -43 35 -8 87 -17 117 -20 30 -4 188 -18 350 -32 163 -13 377 -31 476
-39 99 -8 437 -30 750 -50 314 -19 674 -42 800 -50 127 -9 354 -27 505 -40
151 -14 307 -29 345 -34 39 -5 71 -8 72 -7 1 1 -25 51 -59 111 -33 61 -154
283 -268 495 -114 212 -272 511 -352 665 -80 154 -237 461 -349 682 l-204 403
-75 -3 c-41 -1 -880 -4 -1865 -7z"/>
<path d="M22155 16303 c-132 -268 -311 -624 -399 -792 -87 -169 -221 -423
-299 -566 -77 -143 -169 -311 -204 -374 -34 -62 -63 -115 -63 -118 0 -2 12 -2
28 1 15 3 160 17 322 31 162 13 660 47 1105 75 446 28 884 57 975 65 91 8 298
26 461 40 185 15 325 32 375 45 43 11 120 40 169 64 50 24 117 64 151 89 34
26 90 77 126 115 35 38 107 124 160 193 52 68 135 180 185 249 49 69 135 193
190 275 55 83 161 245 235 360 74 116 174 273 223 350 48 77 105 173 126 213
22 40 39 83 39 96 0 13 -8 30 -19 40 -16 14 -50 17 -232 21 -118 3 -934 7
-1814 10 l-1600 4 -240 -486z"/>
<path d="M5750 14301 c-272 -92 -610 -210 -750 -261 -140 -51 -347 -123 -460
-160 -113 -38 -335 -109 -495 -159 -159 -50 -323 -102 -362 -117 -40 -15 -73
-32 -73 -38 0 -6 298 -308 663 -672 364 -363 716 -710 782 -769 66 -60 174
-154 240 -209 66 -55 158 -124 204 -154 46 -31 123 -72 170 -93 48 -21 119
-45 159 -54 43 -9 122 -15 190 -15 105 1 133 5 282 44 91 24 341 89 555 145
215 55 583 149 819 209 l428 108 -108 61 c-60 34 -174 103 -254 155 -80 52
-298 201 -485 333 -187 131 -401 285 -477 341 -75 57 -169 131 -209 164 -40
34 -83 75 -96 92 -13 18 -23 46 -23 62 0 17 6 38 13 46 7 9 26 26 43 38 18 12
73 38 124 57 50 19 250 85 443 146 194 61 457 144 585 185 127 41 393 130 590
198 196 68 418 146 492 174 74 28 161 63 194 77 32 14 57 28 55 30 -2 2 -99
13 -214 24 -116 11 -295 27 -400 36 -104 8 -516 35 -915 60 -399 25 -813 52
-920 60 -107 8 -217 17 -245 20 -45 4 -102 -13 -545 -164z"/>
<path d="M23725 14464 c-11 -2 -110 -10 -220 -19 -110 -8 -528 -35 -930 -60
-401 -25 -860 -56 -1020 -70 -159 -14 -326 -30 -370 -35 -44 -6 -86 -10 -95
-10 -8 -1 1 -9 21 -20 20 -10 81 -37 135 -59 55 -21 196 -73 314 -114 118 -42
312 -110 430 -151 119 -41 445 -146 725 -235 281 -88 564 -179 630 -201 66
-23 143 -52 170 -66 28 -13 60 -33 73 -44 12 -11 25 -32 28 -45 3 -14 1 -39
-6 -55 -7 -17 -37 -52 -66 -79 -30 -27 -125 -103 -211 -168 -87 -66 -228 -169
-313 -230 -85 -60 -229 -162 -320 -225 -91 -63 -232 -160 -315 -215 -82 -55
-210 -135 -283 -178 l-134 -79 679 -171 c373 -95 815 -208 983 -253 306 -82
306 -82 431 -82 93 0 147 5 205 20 43 11 122 41 174 66 52 25 122 64 155 86
33 23 106 79 162 124 56 46 172 148 259 226 86 78 450 433 808 790 622 620
650 649 631 664 -11 8 -126 49 -255 90 -129 42 -379 123 -555 180 -176 57
-471 159 -655 225 -184 66 -522 183 -750 260 -287 96 -427 139 -455 138 -22
-1 -49 -3 -60 -5z"/>
<path d="M9125 14139 c-27 -16 -97 -49 -155 -73 -58 -24 -186 -73 -285 -109
-99 -36 -333 -117 -520 -181 -187 -63 -446 -149 -575 -190 -129 -41 -372 -118
-540 -171 -167 -53 -319 -103 -338 -111 l-34 -14 53 -43 c30 -24 99 -77 154
-118 55 -42 215 -157 355 -255 140 -99 320 -225 400 -280 80 -55 199 -134 265
-175 66 -42 166 -102 223 -133 57 -32 161 -84 232 -116 71 -33 175 -75 232
-94 57 -20 148 -45 203 -56 55 -11 215 -36 355 -55 140 -19 381 -48 535 -64
154 -17 415 -42 579 -56 165 -14 301 -23 304 -21 2 3 -63 112 -146 243 -82
131 -212 342 -289 468 -77 127 -220 365 -318 530 -98 165 -281 480 -407 699
-125 220 -229 400 -231 402 -1 1 -24 -11 -52 -27z"/>
<path d="M14685 14135 c-71 -7 -201 -25 -287 -39 -87 -14 -209 -37 -272 -51
-63 -13 -170 -38 -238 -55 -68 -17 -184 -49 -258 -71 -74 -23 -198 -66 -275
-96 -77 -30 -194 -82 -260 -115 -66 -33 -187 -99 -270 -145 -82 -47 -226 -136
-320 -199 -93 -62 -186 -126 -205 -143 l-35 -29 100 -104 c55 -56 201 -206
325 -333 124 -126 240 -252 258 -279 19 -29 32 -62 32 -80 0 -17 -6 -38 -13
-47 -7 -9 -22 -21 -34 -27 -12 -7 -32 -12 -45 -12 -14 0 -62 19 -109 43 -46
24 -183 108 -304 187 -121 78 -285 182 -365 230 -80 48 -248 144 -375 212
-126 69 -340 183 -475 253 -135 70 -330 173 -435 229 -104 55 -289 153 -410
217 -121 65 -222 115 -224 113 -2 -2 40 -70 94 -151 54 -82 141 -206 195 -278
53 -71 147 -191 210 -265 63 -74 241 -263 396 -420 245 -248 283 -290 289
-323 5 -28 20 -50 49 -76 22 -21 106 -98 186 -171 80 -73 210 -187 291 -255
80 -67 233 -187 340 -267 106 -80 298 -217 424 -305 127 -87 403 -276 615
-420 212 -143 455 -303 540 -355 85 -52 220 -133 300 -178 80 -46 235 -127
345 -181 110 -53 253 -117 317 -143 64 -25 141 -51 169 -57 29 -6 77 -8 108
-5 31 4 102 22 158 41 57 19 183 71 280 115 98 45 237 113 308 152 72 39 225
127 340 197 116 69 314 195 440 280 127 85 372 251 545 369 173 119 378 260
455 316 77 55 210 152 295 217 85 64 211 164 280 221 69 57 212 184 319 281
107 97 198 177 203 177 4 0 8 16 8 36 0 33 18 54 266 307 147 150 323 337 392
417 68 80 168 204 222 275 54 72 141 195 194 274 53 79 101 152 107 162 8 15
-13 8 -88 -29 -54 -28 -179 -94 -278 -147 -99 -54 -331 -176 -515 -273 -184
-96 -432 -226 -550 -290 -118 -63 -287 -156 -375 -207 -88 -50 -232 -138 -320
-195 -88 -57 -215 -139 -283 -182 -68 -44 -157 -96 -198 -115 -58 -28 -81 -34
-108 -29 -19 4 -39 13 -45 20 -7 8 -16 27 -20 43 -6 20 -4 40 5 62 8 18 33 56
56 85 23 28 177 187 340 354 164 166 298 306 298 312 0 5 -24 28 -52 51 -29
23 -116 83 -193 134 -77 51 -201 128 -275 170 -74 43 -205 113 -291 156 -86
43 -201 96 -255 117 -54 22 -155 58 -224 80 -69 22 -195 59 -280 81 -85 22
-231 56 -325 75 -93 19 -235 44 -315 55 -80 12 -194 25 -255 31 -60 5 -200 9
-310 9 -110 -1 -258 -7 -330 -14z"/>
<path d="M20920 13983 c-41 -71 -161 -274 -268 -453 -108 -179 -267 -440 -355
-580 -88 -140 -210 -331 -270 -425 -61 -93 -185 -282 -277 -420 -91 -137 -170
-256 -175 -264 -7 -12 6 -13 76 -7 46 4 208 18 359 32 151 13 374 36 495 49
121 14 288 34 370 45 83 12 206 30 275 41 69 11 161 29 205 40 44 12 123 37
175 56 52 19 159 66 237 103 79 38 198 101 265 141 68 40 177 108 243 152 66
44 224 152 350 241 127 88 311 218 410 290 99 72 220 162 269 200 l89 70 -114
38 c-63 22 -348 113 -634 203 -286 91 -612 196 -725 235 -113 39 -295 103
-405 142 -110 38 -252 90 -315 115 -63 25 -132 54 -152 64 -21 11 -41 19 -46
19 -5 0 -42 -57 -82 -127z"/>
<path d="M11212 12072 c-24 -37 -134 -249 -245 -472 -112 -223 -226 -465 -255
-538 -29 -73 -75 -207 -102 -297 -27 -91 -65 -242 -85 -337 -19 -95 -44 -231
-55 -303 -10 -71 -27 -188 -35 -260 -9 -71 -19 -234 -22 -361 -4 -148 -1 -266
6 -329 6 -55 19 -133 27 -175 9 -41 33 -129 55 -195 21 -67 70 -184 108 -260
38 -77 93 -175 123 -217 29 -42 96 -132 148 -199 52 -67 135 -163 186 -214 50
-51 192 -182 315 -291 123 -110 343 -301 489 -426 146 -125 373 -315 505 -423
132 -109 362 -288 510 -399 149 -112 358 -266 465 -342 107 -77 290 -205 405
-285 116 -80 273 -186 350 -236 77 -50 223 -142 325 -205 102 -63 226 -139
275 -168 50 -29 143 -84 208 -122 l118 -69 92 52 c51 29 178 104 282 168 105
63 262 159 350 214 88 55 269 173 402 263 133 89 354 242 490 340 136 98 345
249 463 337 118 88 292 221 385 295 94 75 249 201 345 281 96 80 288 242 425
360 138 118 329 285 425 370 96 86 217 197 269 246 51 50 141 149 198 220 58
72 138 180 179 240 40 61 100 167 133 235 32 69 75 172 94 230 19 58 44 151
56 207 11 55 25 163 31 240 5 76 7 199 4 273 -3 74 -12 203 -20 285 -8 83 -26
224 -40 315 -14 91 -39 230 -55 310 -17 80 -44 195 -61 255 -17 61 -50 168
-74 238 -24 70 -71 189 -105 265 -33 75 -140 295 -238 487 -98 193 -194 376
-215 408 -21 32 -39 57 -41 55 -2 -2 -15 -60 -29 -129 -14 -69 -45 -186 -69
-260 -25 -74 -70 -200 -101 -281 -33 -87 -56 -162 -56 -185 0 -22 19 -84 46
-148 25 -60 66 -171 91 -245 25 -74 56 -186 69 -250 13 -63 28 -162 34 -219 5
-57 10 -152 10 -211 0 -59 -5 -154 -10 -211 -6 -57 -22 -160 -36 -227 -13 -68
-43 -178 -65 -245 -22 -67 -69 -180 -103 -252 -35 -71 -95 -177 -133 -235 -38
-58 -103 -145 -145 -195 -41 -49 -111 -124 -154 -165 -44 -41 -117 -105 -164
-142 -47 -36 -122 -89 -166 -116 -44 -28 -122 -71 -173 -97 -52 -25 -130 -61
-175 -79 -44 -18 -128 -47 -186 -64 -58 -17 -161 -40 -230 -52 -69 -11 -192
-23 -275 -26 -89 -4 -197 -2 -265 5 -63 7 -170 23 -237 36 -67 14 -178 43
-245 65 -68 22 -179 68 -248 101 -68 33 -146 74 -173 90 -27 17 -50 29 -51 27
-1 -2 -24 -57 -51 -123 -26 -66 -85 -203 -130 -305 -45 -102 -114 -248 -153
-325 -40 -81 -84 -153 -104 -172 -18 -17 -46 -37 -61 -43 -20 -7 -41 -7 -67 0
-25 7 -51 25 -74 52 -20 23 -67 105 -105 182 -38 78 -97 204 -131 281 -35 77
-93 214 -131 305 -39 96 -74 166 -82 168 -8 2 -64 -25 -124 -59 -59 -35 -155
-84 -213 -110 -58 -26 -155 -63 -217 -83 -61 -19 -167 -47 -235 -61 -68 -13
-192 -30 -275 -36 -112 -8 -187 -8 -294 0 -79 6 -200 22 -268 36 -67 14 -178
44 -245 66 -66 22 -179 69 -251 104 -71 35 -177 95 -235 133 -58 38 -150 107
-205 153 -54 46 -141 131 -192 187 -50 57 -120 144 -155 193 -35 49 -90 138
-124 199 -33 60 -82 162 -108 227 -25 65 -59 163 -75 219 -16 55 -40 159 -52
230 -20 109 -23 164 -23 354 0 191 3 245 23 355 13 71 38 182 56 245 19 63 52
160 75 214 22 55 67 150 100 213 33 62 60 118 60 124 0 7 -32 94 -70 196 -39
101 -86 238 -104 306 -18 67 -39 156 -46 197 -7 41 -16 78 -19 82 -4 4 -26
-23 -49 -60z"/>
<path d="M9100 11654 c-85 -69 -222 -180 -305 -247 -82 -67 -280 -234 -440
-371 -159 -137 -351 -303 -425 -369 -74 -66 -199 -179 -277 -251 -79 -72 -143
-134 -143 -138 0 -4 37 -26 81 -49 45 -22 166 -78 270 -125 104 -46 290 -127
413 -178 123 -52 314 -128 423 -169 109 -41 257 -90 328 -110 72 -20 195 -52
275 -71 80 -18 199 -42 265 -51 87 -13 184 -19 350 -19 127 -1 251 3 278 7
l47 8 0 48 c0 27 7 117 15 202 8 85 24 219 36 299 11 80 31 206 45 280 13 74
43 208 65 298 22 90 39 164 37 166 -1 1 -20 14 -41 29 -20 16 -44 41 -52 57
-8 16 -15 41 -15 55 0 14 6 41 14 59 8 19 80 102 160 184 132 137 149 159 196
251 l51 102 -30 43 c-29 42 -32 43 -98 50 -37 3 -223 20 -413 36 -190 16 -469
43 -620 60 -151 17 -288 32 -305 35 -26 4 -49 -11 -185 -121z"/>
<path d="M20675 11764 c-55 -7 -235 -27 -400 -43 -165 -17 -412 -40 -550 -51
-137 -11 -259 -22 -271 -25 -12 -3 -41 -35 -68 -75 l-46 -70 31 -62 c23 -46
70 -102 172 -208 77 -80 153 -165 168 -189 16 -25 29 -58 29 -73 0 -16 -6 -44
-14 -62 -8 -20 -34 -47 -61 -66 -34 -23 -45 -36 -40 -48 4 -10 20 -68 36 -131
16 -62 45 -195 63 -295 19 -99 46 -269 61 -376 14 -107 28 -257 32 -332 l6
-137 56 -8 c31 -4 157 -8 281 -7 178 1 255 5 367 22 78 12 240 47 360 77 120
31 272 74 338 96 65 23 234 87 375 144 140 56 345 142 455 190 110 48 270 119
355 159 85 39 154 76 154 81 0 6 -61 66 -135 135 -74 69 -222 202 -329 295
-107 94 -274 238 -370 321 -96 82 -242 206 -325 275 -82 69 -250 205 -371 302
-126 100 -230 176 -240 176 -11 -1 -64 -8 -119 -15z"/>
<path d="M12100 10688 c-33 -68 -71 -165 -84 -215 -14 -51 -30 -136 -37 -190
-7 -59 -9 -141 -6 -212 4 -64 16 -156 27 -204 10 -48 36 -129 56 -180 20 -51
55 -123 77 -162 22 -38 57 -93 78 -121 21 -29 64 -79 95 -113 31 -34 96 -91
143 -127 47 -35 129 -86 181 -113 52 -27 130 -60 172 -74 43 -15 114 -33 159
-42 50 -9 137 -15 226 -15 106 0 171 5 244 20 54 11 131 32 171 46 40 15 105
42 143 62 39 19 104 57 145 85 41 28 114 89 163 136 49 47 111 115 138 151 27
36 48 71 47 78 -2 8 -142 101 -313 208 l-310 195 -50 -57 c-27 -32 -77 -75
-109 -96 -33 -21 -91 -48 -129 -59 -55 -17 -87 -21 -166 -17 -89 3 -105 7
-173 40 -51 26 -92 56 -131 97 -33 35 -70 87 -87 123 -16 35 -34 96 -40 136
-9 53 -9 91 0 145 6 39 24 101 40 136 17 35 30 65 30 66 0 2 -139 91 -308 199
-170 108 -314 196 -320 196 -7 0 -39 -55 -72 -122z"/>
<path d="M17495 10619 c-165 -105 -304 -194 -308 -199 -5 -4 -2 -19 7 -32 9
-13 25 -51 36 -83 11 -32 23 -88 26 -124 3 -36 1 -93 -5 -126 -6 -32 -24 -88
-41 -122 -16 -35 -53 -88 -82 -119 -29 -31 -72 -67 -96 -81 -23 -14 -70 -34
-103 -44 -36 -11 -90 -19 -133 -19 -40 0 -97 7 -127 16 -30 9 -72 25 -94 36
-22 11 -63 37 -90 59 -28 21 -64 56 -80 78 -17 22 -33 41 -37 41 -4 0 -141
-84 -305 -187 -164 -102 -304 -192 -312 -199 -13 -12 -9 -22 24 -71 22 -32 83
-101 135 -154 52 -52 129 -118 170 -146 41 -28 112 -69 158 -92 46 -23 122
-55 170 -71 48 -16 130 -37 182 -46 72 -12 133 -15 250 -11 124 3 175 10 252
30 54 14 141 45 193 67 52 23 135 69 184 101 48 33 124 94 168 137 43 42 99
104 124 137 25 33 64 92 87 132 23 39 56 106 73 149 17 42 42 120 56 173 18
72 26 132 30 241 4 108 1 170 -11 245 -9 54 -32 146 -52 205 -19 58 -54 141
-77 185 -24 44 -50 81 -58 82 -7 2 -149 -83 -314 -188z"/>
</g>
</svg>
