<svg width="3074" height="760" viewBox="0 0 3074 760" fill="none" xmlns="http://www.w3.org/2000/svg">
<path d="M57.6567 9.02153C57.817 10.122 58.7788 15.3623 59.7407 20.7075C60.7559 26.0526 62.7865 35.2232 64.2827 41.1448C65.7789 47.0664 68.2903 55.6605 69.84 60.272C71.3896 64.8835 73.7942 71.4863 75.1835 74.945C76.5728 78.4036 79.4049 84.7444 81.382 89.0415C83.3591 93.2861 86.5118 99.4173 88.3286 102.666C90.092 105.863 93.1378 110.841 95.0615 113.723C96.9851 116.606 100.084 120.85 101.901 123.156C103.718 125.462 107.993 129.969 111.359 133.165C114.726 136.309 119.802 140.554 122.634 142.493C125.466 144.432 130.062 147.209 132.787 148.572C135.512 149.987 139.947 151.873 142.619 152.712C145.344 153.602 150.26 154.703 153.573 155.175C157.955 155.803 161.268 155.961 165.757 155.699C169.123 155.541 174.199 154.913 176.978 154.388C179.757 153.812 184.405 152.659 187.238 151.768C190.07 150.877 194.238 149.305 196.535 148.257L200.703 146.423L129.42 76.8839C90.2523 38.6294 58.0307 7.29222 57.7636 7.18741C57.5498 7.0826 57.4964 7.92105 57.6567 9.02153Z" fill="#9C5E00"/>
<path d="M303.886 106.439C268.726 140.659 259.161 150.196 259.802 150.615C260.23 150.877 262.421 151.716 264.665 152.449C266.909 153.183 270.863 154.126 273.428 154.598C275.993 155.017 279.627 155.384 281.444 155.384C283.314 155.384 286.627 155.07 288.818 154.65C291.008 154.231 294.589 153.183 296.833 152.345C299.077 151.506 303.031 149.41 305.596 147.733C308.161 146.056 312.383 142.702 314.947 140.292C317.512 137.881 321.093 133.794 322.963 131.226C324.833 128.658 327.825 123.89 329.642 120.693C331.512 117.444 334.451 111.47 336.161 107.435C337.925 103.4 340.329 97.2687 341.505 93.8625C342.734 90.4039 344.658 83.8011 345.78 79.1896C346.955 74.5257 348.131 69.1805 348.505 67.2416C348.879 65.3027 349.039 63.521 348.986 63.259C348.879 62.9445 328.573 82.3862 303.886 106.439Z" fill="#9C5E00"/>
<path d="M179.65 279.423C178.046 279.528 172.169 279.947 166.558 280.366C161.001 280.838 150.42 281.886 143.046 282.777C135.726 283.615 125.733 284.925 120.871 285.659C116.008 286.392 107.619 287.807 102.168 288.803C96.7178 289.799 88.5422 291.476 84.0002 292.471C79.4582 293.467 72.2444 295.249 67.9696 296.454C63.6947 297.607 57.7634 299.493 54.7176 300.646C49.6412 302.585 49.1069 302.952 47.1832 305.415C46.061 306.935 43.9771 310.026 42.4809 312.332C40.9847 314.69 38.0992 319.721 36.0152 323.599C33.9312 327.477 30.5648 334.446 28.5342 339.058C26.5037 343.669 23.8319 350.115 22.6029 353.416C21.3739 356.665 20.4655 359.495 20.6258 359.6C20.7861 359.757 23.9388 359.286 27.7327 358.552C31.4732 357.818 37.832 356.718 41.7862 356.141C45.7404 355.565 53.7557 354.569 59.5268 353.993C68.3436 353.102 73.794 352.945 92.443 352.945C110.664 352.945 116.97 353.154 126.535 353.993C132.947 354.569 141.016 355.408 144.382 355.879C147.749 356.299 155.23 357.399 160.947 358.238L171.314 359.862L184.993 357.975C192.474 356.98 200.81 355.879 203.428 355.617C206.1 355.303 212.352 354.831 217.322 354.464C223.306 354.045 234.1 353.94 248.848 354.15C261.192 354.307 276.581 354.831 283.047 355.251C289.513 355.722 297.688 356.351 301.215 356.665C304.742 356.98 312.49 358.028 318.475 359.024C324.46 360.019 333.383 361.644 338.246 362.692C343.162 363.687 351.498 365.574 356.788 366.832C362.078 368.089 372.658 370.814 380.299 372.858C387.941 374.902 400.552 378.675 408.353 381.243C416.155 383.758 422.62 385.749 422.727 385.644C422.834 385.54 421.178 383.496 419.04 381.138C416.903 378.727 410.811 372.229 405.521 366.674C400.177 361.067 392.483 353.416 388.315 349.591C384.2 345.765 378.216 340.316 374.956 337.486C371.75 334.656 366.299 330.097 362.933 327.319C359.567 324.542 351.925 318.673 345.941 314.271C339.956 309.869 332.742 304.786 329.91 302.952C327.078 301.118 322.536 298.288 319.864 296.664C315.215 293.834 314.681 293.624 305.436 291.633C300.2 290.532 292.452 289.013 288.284 288.227C284.062 287.493 275.887 286.183 270.116 285.344C264.291 284.506 255.314 283.353 250.184 282.777C245.054 282.2 236.131 281.362 230.413 280.89C224.696 280.471 215.291 279.842 209.573 279.58C203.856 279.318 195.413 279.108 190.871 279.161C186.329 279.213 181.253 279.318 179.65 279.423Z" fill="#9C5E00"/>
<path d="M249.116 502.294C244.253 502.556 237.681 502.976 234.421 503.29C229.024 503.709 228.009 503.971 222.131 506.487C218.604 508.006 211.498 511.308 206.314 513.875C201.131 516.391 192.795 520.845 187.772 523.727C182.803 526.609 175.589 530.959 171.848 533.369C168.055 535.78 161.856 539.92 158.009 542.645C154.215 545.317 148.016 549.824 144.329 552.654C140.642 555.431 134.978 559.938 131.772 562.558C128.566 565.231 122.581 570.419 118.467 574.087C114.352 577.755 107.833 583.939 104.039 587.764C100.192 591.642 94.6878 597.511 91.6954 600.813C88.7564 604.114 84.2144 609.407 81.6495 612.603C79.0846 615.747 74.4892 622.036 71.4434 626.49C68.3976 630.944 64.4433 637.338 62.68 640.691C60.8632 644.045 59.4204 647.032 59.4204 647.399C59.4204 647.714 64.4968 653.687 70.6953 660.71C76.9472 667.679 83.0923 674.492 84.3747 675.854L86.7793 678.265L94.5809 671.452C98.8557 667.732 106.07 661.758 110.558 658.194C115.047 654.683 122.528 649.181 127.176 645.984C131.772 642.788 139.039 638.071 143.314 635.451C147.589 632.831 152.719 629.687 154.696 628.481C156.726 627.224 161.322 623.87 164.848 620.988C168.429 618.106 174.2 613.651 177.673 611.136C181.093 608.621 187.826 604.009 192.635 600.865C197.391 597.773 204.551 593.319 208.505 591.013C212.459 588.707 218.604 585.301 222.131 583.415C225.658 581.528 232.872 577.86 238.162 575.24C243.452 572.672 252.963 568.322 259.269 565.545C265.574 562.82 274.979 558.89 280.162 556.846C285.345 554.855 294.964 551.291 301.536 548.986C308.109 546.732 317.727 543.536 322.857 541.964C327.987 540.339 336.536 537.824 341.826 536.356C347.117 534.837 357.697 532.164 365.338 530.33C372.979 528.496 383.506 526.138 388.689 525.09C393.926 524.094 402.583 522.522 407.926 521.684C413.27 520.793 418.186 520.111 418.88 520.111C419.575 520.111 420.109 519.902 420.109 519.692C420.109 519.43 416.209 518.382 411.453 517.334C406.644 516.286 398.201 514.504 392.59 513.351C387.033 512.199 377.04 510.417 370.414 509.421C363.788 508.373 353.475 506.958 347.437 506.277C341.399 505.543 332.529 504.6 327.666 504.128C322.803 503.709 315.483 503.08 311.368 502.766C307.254 502.452 293.574 502.137 280.91 502.032C268.299 501.927 253.979 502.085 249.116 502.294Z" fill="#9C5E00"/>
<path d="M85.0692 20.9695C96.9853 32.7079 129.26 64.2023 156.779 91.0328L206.902 139.768L207.917 137.462C208.452 136.205 209.787 132.798 210.803 129.916C211.818 127.086 213.154 123.051 213.795 121.06C214.383 119.016 215.238 115.505 215.719 113.199C216.2 110.894 216.734 106.649 216.894 103.767C217.055 100.885 216.894 96.0636 216.574 93.0766C216.2 90.0896 215.345 85.5829 214.597 83.1199C213.902 80.657 211.978 75.9931 210.375 72.8489C208.772 69.6523 205.887 65.0408 204.016 62.5778C202.093 60.1149 198.406 56.1322 195.841 53.6692C193.222 51.2587 188.841 47.4856 186.062 45.2847C183.283 43.1362 178.688 39.7824 175.909 37.8958C173.131 36.0093 168.963 33.3891 166.665 32.0267C164.367 30.6642 159.932 28.306 156.779 26.7863C153.627 25.2666 148.07 22.8037 144.382 21.3364C140.695 19.9215 133.482 17.3013 128.352 15.572C123.169 13.8427 114.993 11.3273 110.184 9.96484C105.321 8.60236 97.0387 6.50622 91.7486 5.24854C86.4585 3.99086 78.6569 2.31395 74.3821 1.58031C70.1073 0.846661 65.9393 0.113014 65.0309 0.0082074C63.695 -0.201406 67.2752 3.51923 85.0692 20.9695Z" fill="#F2960C"/>
<path d="M332.903 57.6518C328.521 58.595 322.75 60.0099 320.078 60.796C317.353 61.5296 311.742 63.2065 307.628 64.569C303.513 65.8791 297.796 67.8704 294.91 68.9709C292.025 70.1238 287.696 72.0103 285.292 73.1632C282.887 74.3684 279.254 76.4122 277.17 77.6699C275.139 78.9799 271.666 81.3905 269.421 83.0674C267.231 84.6919 263.543 87.7837 261.246 89.8798C259.001 91.9236 255.849 95.5918 254.246 97.95C252.643 100.256 250.772 103.61 250.024 105.339C249.33 107.068 248.368 109.793 247.994 111.365C247.566 113.095 247.246 116.868 247.246 120.798C247.299 126.195 247.566 128.239 248.688 132.327C249.49 135.052 250.612 138.667 251.253 140.344L252.429 143.384L257.024 139.139C259.589 136.833 279.948 117.13 302.284 95.3822C329.055 69.3377 342.521 55.8701 341.826 55.8701C341.239 55.8701 337.231 56.7085 332.903 57.6518Z" fill="#F2960C"/>
<path d="M216.039 178.494C214.703 178.756 212.139 179.437 210.268 180.066C208.451 180.643 205.138 182.267 203.055 183.682C200.917 185.044 198.138 187.193 196.909 188.451C195.734 189.708 193.757 192.119 192.528 193.848C191.352 195.525 189.642 198.774 188.734 201.027C187.879 203.281 187.131 205.586 187.131 206.215C187.131 206.792 186.276 208.207 185.207 209.36C183.925 210.722 182.482 211.665 181.039 212.032C179.864 212.347 175.108 213.657 170.566 214.967C166.024 216.277 159.825 218.321 156.833 219.473C153.787 220.626 151.329 221.779 151.329 222.041C151.329 222.251 151.863 222.46 152.558 222.46C153.199 222.46 157.902 223.299 162.978 224.294C168.054 225.29 176.604 227.229 181.947 228.539C187.291 229.849 195.039 231.841 199.154 232.993C203.268 234.146 208.932 235.823 211.711 236.714C214.49 237.605 219.94 239.334 223.734 240.644C227.581 241.954 235.757 244.941 241.902 247.352C248.101 249.763 257.238 253.483 262.207 255.684C267.23 257.937 276.849 262.497 283.582 265.903C290.368 269.309 299.131 273.92 303.086 276.174C307.04 278.375 313.879 282.462 318.315 285.24C322.696 287.965 327.773 291.004 329.536 292C331.246 292.995 334.612 295.144 337.017 296.716C339.368 298.34 345.139 302.48 349.842 305.991C354.544 309.45 360.582 313.957 363.2 316C365.872 318.044 371.002 322.289 374.689 325.381C378.376 328.525 385.536 334.813 390.613 339.425C395.689 344.036 404.185 352.263 409.422 357.713C414.712 363.163 421.552 370.447 424.651 373.906C427.75 377.417 430.262 380.037 430.262 379.723C430.262 379.461 428.712 374.902 426.842 369.609C424.972 364.316 422.193 357.085 420.643 353.469C419.147 349.853 415.888 342.831 413.376 337.8C410.918 332.769 407.712 326.795 406.269 324.437C404.88 322.079 403.277 319.354 402.743 318.358C402.208 317.363 399.376 312.856 396.437 308.402C393.498 303.948 388.903 297.45 386.284 293.991C383.613 290.532 379.391 285.344 376.933 282.462C374.422 279.58 367.635 272.61 361.918 266.951C356.147 261.344 348.185 254.164 344.231 251.073C340.277 247.981 333.277 243.002 328.681 239.963C324.086 236.976 320.131 234.513 319.811 234.513C319.544 234.513 318.475 233.884 317.46 233.151C316.444 232.417 311.902 229.954 307.36 227.753C302.818 225.5 295.498 222.251 291.063 220.469C286.681 218.74 280.162 216.486 276.635 215.491C273.108 214.443 268.246 213.133 265.841 212.504C263.276 211.823 260.872 210.827 260.123 210.146C259.322 209.412 258.36 207.473 257.665 205.115C257.024 202.966 255.635 199.455 254.566 197.307C253.07 194.267 251.467 192.276 247.78 188.555C243.612 184.416 242.223 183.42 238.215 181.533C235.436 180.276 231.803 179.07 229.398 178.651C227.154 178.284 223.787 177.97 221.864 177.97C219.94 178.022 217.322 178.232 216.039 178.494Z" fill="#F2960C"/>
<path d="M59.9545 362.849C55.0919 363.373 47.5575 364.316 43.1224 364.945C38.7407 365.626 31.1528 366.936 26.2902 367.984C21.4276 368.98 17.2062 370.081 16.8321 370.343C16.4581 370.605 15.4428 373.225 14.481 376.159C13.5726 379.094 12.397 382.919 11.8092 384.649C11.2749 386.378 9.83211 391.671 8.65653 396.439C7.48095 401.208 5.93133 408.387 5.18323 412.475C4.48857 416.51 3.36643 423.584 2.77864 428.196C2.13742 432.755 1.38932 438.624 1.12214 441.244C0.854967 443.812 0.427483 451.515 0.160306 458.275C-0.0534354 465.088 -0.0534354 475.778 0.160306 482.119C0.427483 488.46 1.12214 498.102 1.70993 503.604C2.35116 509.054 3.41987 517.124 4.11453 521.526C4.86262 525.876 6.0382 532.217 6.78629 535.518C7.48095 538.872 8.70997 544.007 9.45806 546.994C10.2062 549.929 11.4886 554.383 12.2901 556.899L13.6795 561.405L15.0688 560.514C15.8169 559.99 19.5574 557.789 23.4047 555.588C27.252 553.44 36.4429 548.671 43.817 545.055C51.1911 541.44 61.237 536.723 66.2065 534.627C71.1759 532.479 80.3668 528.758 86.6722 526.4C92.9776 524.042 101.314 521.055 105.107 519.745C108.955 518.487 116.382 516.181 121.672 514.609C126.962 513.037 138.13 510.102 146.52 508.059C154.909 506.015 167.573 503.29 174.68 502.032C181.787 500.722 193.009 498.993 199.528 498.102C206.1 497.264 214.597 496.215 218.39 495.796C222.238 495.325 230.413 494.591 236.558 494.172C242.757 493.7 257.291 493.176 268.887 493.019C282.353 492.809 294.215 492.966 301.75 493.333C308.215 493.7 317.727 494.329 322.857 494.748C327.986 495.167 337.444 496.111 343.803 496.792C350.216 497.526 361.063 498.94 367.849 499.936C374.689 500.932 384.628 502.609 389.918 503.657C395.208 504.705 403.277 506.329 407.819 507.325C412.361 508.373 421.819 510.574 428.819 512.303C435.872 514.033 441.697 515.343 441.857 515.238C441.964 515.081 442.392 512.094 442.819 508.53C443.193 504.967 443.727 499.517 443.888 496.477L444.262 490.975L429.14 480.966C420.804 475.516 409.582 468.232 404.185 464.878C398.788 461.524 391.201 456.913 387.353 454.66C383.452 452.406 375.865 448.109 370.414 445.07C364.964 442.03 357.109 437.733 352.887 435.532C348.719 433.331 339.208 428.563 331.78 424.947C324.406 421.279 313.452 416.091 307.521 413.418C301.589 410.746 294.75 407.706 292.292 406.763C289.834 405.767 284.597 403.619 280.643 401.942C276.688 400.317 268.887 397.278 263.276 395.182C257.719 393.033 246.177 389.103 237.627 386.378C229.131 383.601 220.474 380.876 218.39 380.299C216.36 379.723 211.177 378.308 206.902 377.103C202.627 375.95 194.345 373.906 188.467 372.648C182.589 371.338 173.825 369.609 168.963 368.718C164.1 367.88 155.924 366.57 150.795 365.836C145.665 365.102 136.741 364.002 131.024 363.373C122.046 362.377 117.024 362.22 94.6875 362.063C72.5118 361.958 67.4889 362.063 59.9545 362.849Z" fill="#F2960C"/>
<path d="M381.636 579.117C380.033 579.222 370.895 579.799 361.33 580.375C351.765 580.951 341.452 581.685 338.353 581.947C335.254 582.262 328.895 582.995 324.193 583.572C319.49 584.148 311.315 585.301 306.025 586.192C300.734 587.03 292.666 588.498 288.124 589.336C283.582 590.227 273.696 592.428 266.215 594.314C258.734 596.201 250.185 598.402 247.246 599.24C244.307 600.079 237.36 602.28 231.749 604.166C226.192 606 218.497 608.725 214.65 610.14C210.856 611.608 205.566 613.651 202.894 614.699C200.276 615.8 193.383 618.839 187.665 621.459C181.948 624.132 173.131 628.481 168.161 631.154C163.138 633.827 158.596 636.447 158.008 636.971C157.421 637.495 156.192 638.281 155.337 638.7C154.428 639.119 150.528 641.477 146.627 643.888C142.779 646.246 136.047 650.701 131.718 653.74C127.337 656.779 120.817 661.548 117.13 664.43C113.443 667.312 106.764 672.815 102.275 676.64C97.8402 680.518 94.1532 683.924 94.1532 684.186C94.1532 684.448 95.97 686.125 98.2143 687.907C100.459 689.741 105.161 693.252 108.634 695.767C112.107 698.23 118.199 702.213 122.153 704.519C126.161 706.825 133.268 710.65 138.077 713.008C142.886 715.366 150.047 718.51 154.054 720.083C158.008 721.602 164.528 723.803 168.482 724.956C172.436 726.109 177.192 727.419 179.115 727.891C181.039 728.362 183.337 729.201 184.245 729.777C185.474 730.511 186.757 732.502 189.482 737.847C192.367 743.612 193.65 745.551 196.375 748.276C198.192 750.057 201.184 752.573 203.055 753.778C204.925 754.983 208.184 756.608 210.268 757.341C213.474 758.442 215.345 758.756 221.329 758.914C226.94 759.123 229.291 758.966 232.017 758.285C233.94 757.813 237.307 756.555 239.497 755.56C242.65 754.092 244.52 752.678 248.047 749.167C251.2 746.075 253.23 743.507 254.566 740.992C255.635 738.948 257.024 735.961 257.665 734.336C258.36 732.45 259.375 730.93 260.284 730.249C261.139 729.672 264.078 728.624 266.803 727.891C269.582 727.157 276.261 725.113 281.711 723.384C287.162 721.707 294.75 718.93 298.597 717.253C302.444 715.523 308.696 712.589 312.437 710.598C316.231 708.659 322.696 704.938 326.811 702.37C330.979 699.75 337.498 695.348 341.345 692.466C345.193 689.636 351.177 684.763 354.704 681.618C358.177 678.474 364.429 672.5 368.544 668.36C372.659 664.221 378.857 657.408 382.223 653.216C385.643 649.024 389.33 644.307 390.452 642.735C391.575 641.163 394.674 636.656 397.346 632.779C399.964 628.901 404.292 621.931 406.911 617.32C409.529 612.708 413.163 606 414.872 602.385C416.636 598.769 419.521 592.533 421.231 588.498C422.941 584.463 424.384 580.899 424.384 580.585C424.384 580.218 422.3 579.903 418.827 579.694C415.781 579.484 406.804 579.222 398.949 579.117C391.04 579.013 383.239 579.013 381.636 579.117Z" fill="#F2960C"/>
<path d="M1115.97 140.377H818.2V316.912H1107.46V457.289H818.2V744.424H671.442V0H1115.97V140.377Z" fill="#F2960C"/>
<path d="M1332.44 304.15C1345.2 270.119 1366.12 244.596 1395.19 227.581C1424.96 210.566 1457.93 202.058 1494.09 202.058V355.196C1452.26 350.234 1414.68 358.741 1381.36 380.719C1348.75 402.698 1332.44 439.21 1332.44 490.256V744.424H1195.26V212.692H1332.44V304.15Z" fill="#F2960C"/>
<path d="M1649.24 534.922C1667.67 601.565 1717.65 634.887 1799.19 634.887C1851.65 634.887 1891.35 617.163 1918.29 581.714L2028.89 645.522C1976.43 721.382 1899.15 759.312 1797.06 759.312C1709.15 759.312 1638.6 732.725 1585.43 679.552C1532.26 626.379 1505.67 559.381 1505.67 478.558C1505.67 398.444 1531.9 331.8 1584.37 278.627C1636.83 224.745 1704.18 197.804 1786.42 197.804C1864.41 197.804 1928.57 224.745 1978.91 278.627C2029.96 332.509 2055.48 399.153 2055.48 478.558C2055.48 496.282 2053.71 515.07 2050.16 534.922H1649.24ZM1647.11 428.575H1918.29C1910.49 392.418 1894.19 365.477 1869.37 347.752C1845.27 330.028 1817.62 321.166 1786.42 321.166C1749.56 321.166 1719.07 330.737 1694.97 349.879C1670.86 368.312 1654.91 394.544 1647.11 428.575Z" fill="#F2960C"/>
<path d="M2235.76 363.704C2235.76 377.884 2244.98 389.582 2263.41 398.798C2282.55 407.306 2305.6 415.105 2332.54 422.195C2359.48 428.575 2386.42 437.083 2413.36 447.718C2440.3 457.643 2462.99 474.659 2481.42 498.764C2500.56 522.869 2510.14 553 2510.14 589.158C2510.14 643.749 2489.57 685.933 2448.45 715.71C2408.04 744.778 2357.35 759.312 2296.38 759.312C2187.2 759.312 2112.75 717.128 2073.05 632.76L2192.16 565.762C2207.76 611.845 2242.5 634.887 2296.38 634.887C2345.3 634.887 2369.76 619.644 2369.76 589.158C2369.76 574.979 2360.19 563.635 2341.04 555.127C2322.61 545.911 2299.92 537.757 2272.98 530.668C2246.04 523.578 2219.1 514.716 2192.16 504.081C2165.22 493.446 2142.18 476.786 2123.04 454.098C2104.6 430.702 2095.38 401.634 2095.38 366.894C2095.38 314.43 2114.53 273.31 2152.81 243.533C2191.81 213.047 2240.02 197.804 2297.44 197.804C2340.69 197.804 2380.04 207.73 2415.49 227.581C2450.94 246.723 2478.94 274.373 2499.5 310.531L2382.52 374.339C2365.5 338.181 2337.15 320.102 2297.44 320.102C2279.72 320.102 2264.83 324.001 2252.78 331.8C2241.43 339.599 2235.76 350.234 2235.76 363.704Z" fill="#F2960C"/>
<path d="M2872.73 197.804C2930.87 197.804 2978.73 217.301 3016.3 256.294C3054.59 295.288 3073.73 349.17 3073.73 417.941V744.424H2936.54V434.956C2936.54 399.507 2926.97 372.566 2907.83 354.133C2888.69 334.991 2863.16 325.419 2831.26 325.419C2795.81 325.419 2767.45 336.409 2746.18 358.387C2724.91 380.365 2714.28 413.332 2714.28 457.289V744.424H2577.09V0H2714.28V272.246C2747.6 222.618 2800.42 197.804 2872.73 197.804Z" fill="#F2960C"/>
</svg>
