<svg width="786" height="1125" xmlns="http://www.w3.org/2000/svg" xmlns:xlink="http://www.w3.org/1999/xlink" overflow="hidden"><defs><clipPath id="clip0"><rect x="278" y="115" width="786" height="1125"/></clipPath></defs><g clip-path="url(#clip0)" transform="translate(-278 -115)"><path d="M104.882 104.768C163.41 46.4667 211.563-1.22737 211.873-1.38214 212.26-1.53702 213.421 0.321211 214.505 2.79875 215.589 5.27639 218.144 12.1672 220.234 18.129 222.324 24.1683 224.802 32.3754 225.808 36.4015 227.434 42.9052 227.666 45.5377 227.666 59.6291 227.666 73.4108 227.434 76.353 225.963 81.7728 225.034 85.1795 223.253 90.8316 221.86 94.2383 220.544 97.7224 217.757 103.375 215.666 106.859 213.499 110.42 210.325 115.221 208.544 117.543 206.686 119.944 202.118 124.976 198.248 128.77 194.454 132.564 187.641 138.603 183.151 142.242 178.661 145.804 170.068 152.075 164.029 156.101 157.913 160.205 148.004 166.012 141.965 169.109 135.849 172.206 126.249 176.542 120.675 178.71 115.024 180.955 105.269 184.516 98.9985 186.684 92.6503 188.775 82.1215 192.104 75.5411 194.04 68.9606 195.975 57.4254 199.072 49.9933 200.931 42.5613 202.789 31.9551 205.189 26.3811 206.273 20.8844 207.434 12.833 208.828 8.57512 209.447 4.31714 210.067 0.291444 210.609-0.327901 210.609-0.947246 210.609 46.3548 162.992 104.882 104.768Z" fill-rule="evenodd" transform="matrix(1 0 0 -1 422 326)"/><path d="M-0.314987 224.595C-0.314987 223.818 0.535824 217.843 1.6186 211.479 2.62402 205.038 4.40289 195.414 5.48567 190.137 6.6458 184.86 8.73399 175.625 10.2035 169.649 11.673 163.673 14.3027 154.05 16.0042 148.307 17.7831 142.564 20.8768 133.251 22.965 127.664 25.0532 121.998 28.5336 113.307 30.6992 108.262 32.7874 103.14 37.892 92.5856 41.9137 84.6697 45.9356 76.7539 52.5096 65.4232 56.5314 59.4476 60.4759 53.4719 66.6633 45.3232 70.221 41.2876 73.7788 37.2521 79.734 31.1988 83.5238 27.8617 87.2362 24.5245 93.965 19.3249 98.4508 16.3758 102.859 13.4269 109.356 9.54649 112.836 7.91678 116.317 6.20944 121.963 3.88124 125.366 2.79476 128.769 1.70829 134.724 0.233704 138.514-0.464776 143.773-1.31839 148.646-1.55125 158.236-1.24077 168.136-0.930394 172.854-0.387155 179.119 1.08743 183.604 2.1739 190.178 4.114 193.814 5.43334 197.449 6.67506 203.172 9.00326 206.498 10.5554L212.685 13.3493 169.374 56.8089C145.63 80.7118 97.6775 128.595 62.9508 163.208 22.1142 203.796-0.314987 225.603-0.314987 224.595Z" fill="#000000" fill-rule="evenodd" fill-opacity="0.34902" transform="matrix(1 0 0 -1 415 349)"/><path d="M131.757 133.098C124.919 131.697 114.119 129.13 107.669 127.341 101.297 125.551 90.4188 122.206 83.5809 119.872 76.7429 117.616 67.5739 114.115 63.1449 112.17 58.7934 110.226 51.9555 106.725 47.9927 104.313 44.1074 101.979 38.0466 98.0115 34.5499 95.3664 31.131 92.7991 25.5362 88.2091 22.2727 85.2528 19.0091 82.2188 14.9685 78.2511 13.4145 76.3062 11.8604 74.4391 9.3739 70.9382 7.97519 68.5266 6.49887 66.1927 4.40081 61.836 3.15753 58.9576 1.99198 56.0013 0.593375 51.1779 0.0494567 48.1438-0.57218 44.7208-0.805333 39.1973-0.494462 33.3625-0.339132 28.3057 0.43794 22.0042 1.13729 19.4368 1.83665 16.8696 3.62384 11.1127 5.17788 6.75601L8.05291-1.33482 28.3335 18.8146C39.5229 29.9395 70.6044 60.7469 97.5676 87.3533 124.453 113.96 145.977 135.743 145.355 135.665 144.734 135.665 138.595 134.498 131.757 133.098Z" fill-rule="evenodd" transform="matrix(1 0 0 -1 690 333)"/><path d="M67.7262 75.3369C30.1127 38.4505-0.725623 7.9823-0.647734 7.51834-0.647734 7.13172 1.68851 5.73974 4.64775 4.57978 7.52911 3.41983 12.5909 1.71857 15.7838 0.790653 19.7554-0.214717 25.0509-0.91071 32.1375-1.14264 41.2488-1.52925 43.6629-1.29733 49.2699 0.0946601 52.8521 1.02258 58.0697 2.80118 60.8733 4.03848 63.6768 5.35312 68.8944 8.36902 72.6324 10.7662 76.2924 13.2408 82.4446 18.3445 86.3383 22.2111 90.5435 26.387 95.6053 32.5734 99.0318 37.5998 102.147 42.2396 106.819 50.2819 109.389 55.3858 111.959 60.5669 115.308 67.5266 116.787 70.9292 118.267 74.3317 121.07 81.4461 123.017 86.7819 124.964 92.1176 127.845 101.707 129.481 108.048 131.116 114.466 133.375 124.442 134.543 130.319 135.633 136.196 136.49 141.3 136.334 141.686 136.178 142.073 105.34 112.224 67.7262 75.3369Z" fill="#000000" fill-rule="evenodd" fill-opacity="0.34902" transform="matrix(1 0 0 -1 706 348)"/><path d="M94.534 304.349C91.3624 303.344 86.6435 301.487 84.0906 300.095 81.4605 298.703 77.5152 296.073 75.2718 294.216 73.0284 292.36 69.6246 288.956 67.7681 286.713 65.9115 284.393 62.9718 279.906 61.27 276.658 59.5681 273.409 57.7114 268.845 57.0926 266.447 56.4737 264.127 55.6227 261.497 55.1586 260.646 54.6944 259.795 53.2247 258.403 51.8322 257.552 50.4397 256.701 48.0416 255.773 46.5718 255.463 45.1019 255.154 38.8359 253.375 32.6473 251.518 26.4586 249.662 16.4794 246.181 10.4454 243.706 4.33412 241.308-0.61688 239.142-0.61688 238.833-0.61688 238.523 1.23974 237.982 3.48312 237.75 5.64913 237.441 12.9209 236.126 19.4964 234.888 26.0718 233.573 37.8303 231.02 45.5662 229.164 53.302 227.307 65.2926 224.136 72.2548 222.202 79.2171 220.191 88.7321 217.406 93.3736 215.859 98.0925 214.39 106.911 211.373 113.1 209.207 119.289 207.119 130.583 202.787 138.319 199.693 145.977 196.599 156.962 191.958 162.764 189.405 168.489 186.93 180.325 181.284 188.989 176.952 197.653 172.543 208.947 166.741 214.053 164.034 219.159 161.249 228.055 156.144 233.779 152.741 239.504 149.337 247.704 144.232 251.959 141.525 256.213 138.74 261.242 135.646 263.176 134.563 265.109 133.558 270.679 129.845 275.553 126.441 280.427 123.038 290.174 115.922 297.213 110.584 304.253 105.247 315.006 96.6611 321.194 91.556 327.306 86.3734 337.594 77.478 344.015 71.6767 350.359 65.8753 362.581 54.0405 371.091 45.3772 379.6 36.7139 389.579 26.2714 393.215 22.2492 396.851 18.2269 403.194 10.9558 407.372 6.16014 412.864-0.260019 414.721-1.96174 414.334-0.414749 414.025 0.822885 411.626 8.55794 408.842 16.8346 406.134 25.1112 401.493 37.642 398.553 44.681 395.691 51.7974 390.276 63.6321 386.64 71.0579 383.004 78.4836 378.362 87.4564 376.196 91.0919 374.108 94.7273 369.157 102.849 365.134 109.269 361.189 115.612 353.762 126.441 348.734 133.248 343.628 140.055 336.357 149.26 332.489 153.746 328.621 158.233 319.879 167.438 313.072 174.245 306.264 181.051 297.213 189.56 292.959 193.041 288.704 196.599 282.747 201.395 279.653 203.715 276.636 206.036 269.21 211.141 263.253 215.086 257.296 218.954 251.108 223.053 249.483 224.059 247.859 225.142 240.664 228.932 233.393 232.645 226.198 236.28 214.827 241.463 208.251 244.015 201.676 246.645 189.53 250.668 181.33 252.988 173.053 255.386 165.704 257.861 164.93 258.557 164.157 259.254 162.996 261.961 162.223 264.591 161.526 267.221 159.747 271.939 158.355 274.956 156.885 278.05 154.1 282.691 152.166 285.321 150.155 287.874 146.21 291.896 143.347 294.216 140.562 296.614 135.766 299.708 132.672 301.178 129.655 302.648 124.781 304.349 121.842 304.968 118.979 305.587 112.945 306.051 108.459 306.051 102.347 306.051 98.8661 305.587 94.534 304.349Z" fill-rule="evenodd" transform="matrix(1 0 0 -1 546 685)"/><path d="M26.1536 66.8136C23.8174 66.1996 20.3909 64.9718 18.5219 64.1276 16.7308 63.2067 13.3043 60.751 10.968 58.679 8.08669 56.0698 5.82834 53.0768 3.95933 49.3166 2.40176 46.2469 0.766417 41.4889 0.29919 38.7263-0.401703 35.0428-0.401703 32.2033 0.221301 28.3662 0.688528 25.45 2.01243 20.9991 3.25843 18.4666 4.58233 15.8574 7.46369 11.9437 10.1893 9.25767 12.9148 6.57177 16.6529 3.80911 19.1449 2.65799 21.4811 1.58363 25.2969 0.279005 27.5553-0.181421 29.8137-0.641951 33.3181-1.02562 35.3428-1.02562 37.3676-1.02562 40.5604-0.641951 42.4294-0.181421 44.2984 0.20225 47.8028 1.50688 50.2169 2.58124 52.7088 3.73235 56.6026 6.57177 59.3282 9.25767 62.0539 11.9437 64.9352 15.7807 66.1033 18.2364 67.1936 20.6154 68.5174 24.0688 68.9068 25.9105 69.374 27.7523 69.7634 30.8987 69.7634 32.8939 69.7634 34.8892 69.374 38.3426 68.9068 40.5681 68.4396 42.7935 67.1157 46.5539 66.0255 48.8561 64.8573 51.3118 62.0539 55.0722 59.3282 57.758 56.6026 60.4441 52.7867 63.2067 50.2948 64.3578 47.9585 65.4322 44.1426 66.7368 41.8843 67.1973 39.6259 67.6577 36.1216 68.0413 34.0968 67.9647 32.0721 67.9647 28.4898 67.4274 26.1536 66.8136Z" fill-rule="evenodd" transform="matrix(1 0 0 -1 425 506)"/><path d="M237.981 172.763C235.657 172.686 226.752 171.99 218.235 171.371 209.717 170.675 191.829 168.741 178.433 167.117 165.036 165.415 147.072 162.863 138.554 161.393 129.958 159.846 116.872 157.448 109.438 155.901 102.004 154.354 90.0017 151.57 82.7228 149.714 75.5213 147.857 65.3773 144.841 60.344 143.139 55.2333 141.36 49.5031 139.194 47.5672 138.266 44.4697 136.796 43.076 135.172 37.3457 126.664 33.7063 121.249 27.5889 110.653 23.7171 103.072 19.8454 95.5697 15.0444 85.5919 13.031 80.951 11.0178 76.31 8.15266 69.3487 6.68134 65.4813 5.21012 61.6139 2.80961 55.194 1.41573 51.3265-0.442732 46.0668-0.907323 44.1332-0.132935 44.1332 0.486554 44.1332 6.4491 45.3708 13.1859 46.8404 19.9227 48.31 32.777 50.5531 41.6821 51.7907 50.6646 53.0283 62.5122 54.5752 68.0101 55.1166 74.7469 55.8128 89.5371 56.1221 112.923 56.1221 143.587 56.0448 149.859 55.8128 164.727 54.2658 174.096 53.3376 188.577 51.5586 196.862 50.321 205.225 49.1608 217.305 47.2271 223.81 46.0668L235.58 43.9011 250.912 45.9896C259.353 47.0724 269.187 48.31 272.826 48.7741 276.466 49.1608 285.371 49.9343 292.572 50.3984 301.245 51.0172 316.81 51.1719 338.259 50.8625 356.147 50.6305 375.815 50.0117 382.01 49.6249 388.205 49.1608 399.898 48.2327 407.951 47.6139 416.082 46.9177 429.633 45.1387 438.151 43.7464 446.669 42.2768 460.762 39.5697 469.512 37.6359 478.262 35.7795 491.813 32.6083 499.712 30.5972 507.61 28.6635 520.852 25.1056 529.137 22.8624 537.423 20.5419 549.657 16.9839 556.239 14.8955 562.822 12.8072 574.204 8.93969 581.483 6.38726 588.762 3.75737 596.351 0.972853 598.364 0.121974 600.532-0.883525 601.771-1.11551 601.462-0.496714 601.152-0.0326454 599.448 2.21044 597.745 4.2988 596.041 6.46463 589.692 13.7353 583.729 20.5419 577.766 27.3486 565.764 40.1885 557.014 49.0834 548.264 57.9785 535.874 69.9675 529.524 75.7686 523.097 81.5697 513.573 90.0007 508.23 94.4869 502.887 98.9731 494.059 106.089 488.484 110.343 482.986 114.597 475.087 120.553 470.983 123.57 466.957 126.586 460.142 131.305 455.883 134.012 451.702 136.796 443.029 142.288 436.679 146.31 427.619 151.957 423.903 153.813 419.644 154.896 416.624 155.592 407.719 157.448 399.82 158.918 391.922 160.388 378.371 162.631 369.62 163.946 360.87 165.261 347.474 166.962 339.808 167.813 332.142 168.664 319.442 169.901 311.544 170.598 303.646 171.216 289.94 172.067 280.957 172.531 272.052 172.918 259.662 173.227 253.468 173.15 247.273 173.073 240.304 172.918 237.981 172.763Z" fill="#000000" fill-rule="evenodd" fill-opacity="0.34902" transform="matrix(1 0 0 -1 356 697)"/><path d="M16.1567 47.0655C13.913 46.2902 10.741 44.6622 9.03889 43.4218 7.25944 42.259 4.78367 39.7006 3.54578 37.685 2.23061 35.7469 0.60582 32.2582-0.0904005 29.9325-0.941488 26.9866-1.17363 24.2732-0.786726 21.0947-0.477306 18.1487 0.528439 14.8927 2.15323 11.8692 3.4684 9.3884 5.63475 6.44245 6.87264 5.35712 8.11042 4.27179 10.9731 2.48871 13.1394 1.32584 16.4661-0.379698 18.0908-0.689748 23.6613-0.767287 29.6959-0.767287 30.6243-0.534776 35.1116 1.86851 37.8194 3.34153 40.8368 5.58974 41.9199 6.83015 43.003 8.07056 44.7825 10.939 45.943 13.1096 47.7224 16.5207 48.0319 17.9937 48.0319 23.653 47.9546 29.7 47.7224 30.7078 45.324 35.2042 43.6993 38.3052 41.4557 41.0961 39.2121 42.8016 37.2779 44.2747 34.4153 45.9802 32.9454 46.6778 31.4753 47.298 27.9938 47.9182 25.2086 48.1509 21.4949 48.3835 19.0967 48.1509 16.1567 47.0655Z" fill-rule="evenodd" transform="matrix(1 0 0 -1 1000 686)"/><path d="M106.619 298.313C103.216 298.159 95.0185 297.462 88.4451 296.844 81.8717 296.147 70.7356 294.755 63.6982 293.749 56.6607 292.667 45.0606 290.578 37.7911 288.954 30.5991 287.407 24.4123 285.705 24.103 285.318 23.7164 284.854 22.4017 280.987 21.087 276.732 19.7723 272.478 17.9936 266.909 17.2203 264.356 16.4469 261.804 14.2043 253.372 12.2709 245.56 10.4148 237.747 7.78551 225.062 6.54815 217.327 5.23344 209.592 3.53209 197.525 2.68147 190.486 1.83075 183.447 0.748084 171.999 0.2841 164.96-0.102536 157.921-0.489277 145.777-0.489277 137.887-0.489277 129.998-0.102536 117.699 0.2841 110.428 0.748084 103.234 1.7534 91.0901 2.68147 83.3549 3.53209 75.6972 5.23344 63.3984 6.4708 56.0501 7.70816 48.6244 10.4922 35.3973 12.6576 26.6567 14.7456 17.8387 16.9883 9.40745 17.6069 7.93783 18.2256 6.4681 18.9216 3.91559 19.2309 2.3685 19.463 0.744152 19.927-0.570842 20.2364-0.570842 20.5456-0.570842 22.0151 0.202702 23.4844 1.13087 24.9537 2.05914 31.6044 5.84929 38.1779 9.63954 44.7512 13.4297 57.666 20.2365 66.7915 24.8777 75.917 29.4414 87.285 34.8559 91.9251 36.9444 96.6425 38.9555 103.216 41.8948 106.619 43.2872 110.021 44.7568 120.307 48.8564 129.432 52.4146 138.558 55.8953 151.472 60.5364 158.046 62.7022 164.619 64.8681 174.75 68.1168 180.473 69.8185 186.196 71.5202 201.198 75.5425 213.727 78.6365 226.255 81.808 245.433 85.9848 256.26 87.9186 267.087 89.8524 282.399 92.3277 290.287 93.4106 298.175 94.4161 309.312 95.8085 315.034 96.5046 320.757 97.2008 331.739 98.2063 339.395 98.8251 347.051 99.4439 363.445 100.295 375.742 100.836 388.27 101.3 406.211 101.532 416.342 101.223 426.318 100.991 440.238 100.372 447.276 99.9854 454.313 99.5213 465.991 98.6705 473.183 98.0517 480.452 97.3555 493.831 95.9631 502.956 94.8802 512.082 93.7973 527.239 91.7862 536.597 90.3165 545.954 88.7696 559.874 86.3717 567.53 84.8246 575.187 83.2776 586.864 80.8797 593.437 79.4101 600.011 77.863 612.23 75.001 620.504 72.9126 628.779 70.8242 637.209 68.5809 639.219 68.0394L642.854 66.8792 643.241 68.9677C643.473 70.0506 644.169 76.5481 644.787 83.3549 645.406 90.1618 646.102 98.0517 646.334 100.914 646.721 105.941 646.643 106.174 644.323 108.107 643.009 109.19 632.723 116.306 621.355 123.887 610.064 131.467 594.52 141.6 586.864 146.473 579.208 151.424 568.768 157.844 563.664 160.861 558.56 163.877 548.584 169.679 541.469 173.778 534.277 177.878 521.439 184.994 512.855 189.635 504.194 194.276 491.434 200.851 484.474 204.409 477.436 207.89 465.14 213.846 457.02 217.714 448.9 221.504 438.46 226.299 433.742 228.388 429.102 230.399 419.745 234.421 412.939 237.283 406.211 240.145 393.683 245.173 385.099 248.422 376.592 251.748 358.574 258.013 345.195 262.422 331.816 266.754 319.829 270.622 318.514 271.086 317.277 271.472 313.101 272.633 309.234 273.638 305.445 274.721 296.861 276.964 290.287 278.666 283.714 280.368 268.943 283.694 257.42 286.014 245.975 288.335 229.039 291.274 219.913 292.512 210.788 293.827 196.172 295.606 187.433 296.534 175.214 297.772 164.851 298.159 142.192 298.313 126.03 298.468 110.021 298.468 106.619 298.313Z" fill-rule="evenodd" transform="matrix(1 0 0 -1 332 948)"/><path d="M9.98006 33.0666C8.01557 32.3652 5.59776 30.5727 3.85998 28.5464 2.27333 26.676 0.535547 23.7924 0.0822341 22.0779-0.446648 20.3633-0.824392 18.0253-0.824392 16.7783-0.824392 15.5313-0.446648 13.1933 0.00666486 11.4788 0.459978 9.68626 2.19776 7.03643 4.31339 4.85429 6.50449 2.67215 9.07333 0.879646 10.9623 0.256162 12.7-0.211424 15.0423-0.67901 16.1756-0.67901 17.3089-0.67901 19.5756-0.289372 21.2378 0.256162 22.9 0.723748 25.6956 2.51625 27.5089 4.15285 29.6245 6.10125 31.2111 8.36134 31.9667 10.7773 32.6467 12.8037 33.1756 15.4534 33.1756 16.7004 33.1756 17.9473 32.7978 20.3633 32.2689 22.0779 31.8156 23.7924 30.0778 26.676 28.4911 28.5464 26.6022 30.7286 24.4111 32.3652 22.0689 33.1446 20.1045 33.846 17.3089 34.3915 15.8733 34.3136 14.3623 34.3136 11.7177 33.7681 9.98006 33.0666Z" fill-rule="evenodd" transform="matrix(1 0 0 -1 912 743)"/><path d="M31.7682 84.0701C28.6513 83.299 24.054 81.5256 21.5606 80.2148 19.067 78.9041 15.2488 76.1283 12.9891 74.0466 10.8073 71.8877 7.61252 68.0325 5.89825 65.411 4.18399 62.7894 2.00221 58.3946 1.14503 55.6189 0.287949 52.843-0.647172 48.294-0.880873 45.5182-1.11468 42.7425-0.880873 37.885-0.33543 34.8009 0.210014 31.3312 1.76841 26.8592 3.63854 23.1583 5.58662 19.2259 8.39177 15.3708 11.2749 12.5179 13.7684 9.97348 17.5085 6.96652 19.5345 5.73285 21.5606 4.5763 25.5345 2.80291 28.3397 1.80059 31.1448 0.798171 36.1319-0.281264 39.4825-0.512512 43.0669-0.743864 47.5083-0.58963 50.4694-0.0499118 53.1967 0.489806 58.2615 2.26319 61.768 3.95946 66.2874 6.11833 69.5602 8.35432 73.1445 11.9011 76.9627 15.525 79.0665 18.4549 81.3263 23.2354 83.1184 26.782 84.9106 31.871 85.4561 34.5696 86.0016 37.4995 86.1574 41.8944 85.9237 45.4411 85.6899 48.7567 84.599 53.6912 83.5861 56.4669 82.573 59.2426 80.7808 63.0979 79.612 65.1025 78.4432 67.1073 75.4822 70.654 73.1445 72.9671 70.729 75.2803 67.2225 78.1331 65.2745 79.2125 63.3264 80.3691 59.5083 82.0653 56.6252 83.1448 53.1187 84.3784 49.2226 85.0724 44.4694 85.3036 39.0929 85.535 36.1319 85.3036 31.7682 84.0701Z" fill-rule="evenodd" transform="matrix(1 0 0 -1 978 808)"/><path d="M291.866 266.282C283.509 265.896 271.284 265.279 264.785 264.816 258.285 264.353 249.465 263.581 245.209 263.118 238.478 262.346 236.311 261.728 228.187 258.023 223.08 255.707 214.879 251.693 210.004 249.146 205.13 246.521 196.077 241.426 189.887 237.876 183.697 234.248 173.793 228.149 167.835 224.29 161.878 220.43 152.67 214.177 147.331 210.395 141.993 206.612 133.172 200.051 127.601 195.806 122.107 191.483 113.055 184.227 107.484 179.595 101.99 174.964 91.3127 165.469 83.8848 158.599 76.3795 151.651 65.3925 140.613 59.3573 134.129 53.3222 127.644 45.5074 118.844 41.9482 114.599 38.389 110.353 32.5085 102.866 28.7947 97.9251 25.0807 92.9849 19.355 84.8024 16.1054 79.7849 12.8556 74.7673 7.82635 65.7358 4.88614 59.8692L-0.530059 49.1393 1.79115 46.7465C3.02915 45.4342 11.695 35.4763 21.1346 24.6693 30.5743 13.8623 39.8591 3.67292 41.7934 1.97469 43.6504 0.353663 45.1979-0.649918 45.1979-0.186783 45.1979 0.19925 50.9236 5.67987 57.8872 11.9326 64.8509 18.1851 75.4511 27.1394 81.4088 31.9254 87.444 36.7114 97.4252 44.2763 103.77 48.7534 110.037 53.3078 120.483 60.2551 126.827 64.2691 133.249 68.2832 140.909 73.1463 143.85 75.0762 146.867 77.0059 153.289 80.7112 158.164 83.4129 163.038 86.0375 170.002 90.5147 173.561 93.2936 177.198 96.0726 184.703 101.708 190.351 105.722 195.999 109.736 205.13 115.911 210.546 119.308 215.962 122.781 225.711 128.648 232.056 132.353 238.478 136.058 251.322 143.083 260.684 147.869 270.046 152.655 285.211 159.911 294.342 164.002 303.472 168.093 317.089 173.883 324.517 176.893 331.945 179.904 342.778 184.072 348.503 186.156 354.229 188.241 366.609 192.563 375.971 195.728 385.333 198.893 400.653 203.756 410.015 206.458 419.378 209.16 435.239 213.483 445.221 216.03 455.202 218.577 471.218 222.205 480.813 224.212 490.407 226.142 504.334 228.767 511.762 230.002 519.19 231.16 530.022 232.781 535.748 233.476 541.474 234.17 547.044 234.942 548.128 235.174 549.521 235.483 546.735 236.486 538.456 238.57 532.111 240.191 519.886 243.125 511.375 244.977 502.864 246.907 490.716 249.454 484.294 250.767 477.95 252.079 464.873 254.318 455.279 255.784 445.685 257.251 430.365 259.335 421.235 260.416 412.105 261.497 398.719 262.886 391.446 263.581 384.25 264.198 372.567 265.125 365.526 265.511 358.484 265.974 342.468 266.437 329.934 266.591 317.399 266.823 300.222 266.668 291.866 266.282Z" fill="#000000" fill-rule="evenodd" fill-opacity="0.34902" transform="matrix(1 0 0 -1 412 1123)"/><path d="M13.1845 40.3364C10.679 39.3289 7.94564 37.3139 5.81964 34.9888 3.46602 32.4313 1.94743 29.8738 1.18824 27.0837 0.504891 24.8362-0.026584 21.8912-0.026584 20.5736-0.026584 19.2561 0.504891 16.3111 1.18824 14.0635 1.94743 11.4285 3.46602 8.71599 5.51598 6.46837 7.18634 4.60842 9.9956 2.28339 11.7419 1.35331 14.0956 0.0357601 16.1456-0.351711 20.4734-0.351711 24.8771-0.351711 26.8512 0.0357601 29.3567 1.43082 31.103 2.3608 33.7605 4.37588 35.203 5.92587 36.7215 7.47596 38.6197 10.6535 39.4549 12.9785 40.2901 15.226 40.9734 18.4811 40.9734 20.1086 40.9734 21.6586 40.4419 24.8362 39.7586 27.0837 38.9993 29.7187 37.4808 32.4313 35.4308 34.6789 33.7605 36.5389 30.9511 38.8639 29.2808 39.7164 27.5345 40.6465 24.1937 41.4214 21.6123 41.5765 18.2716 41.809 15.9938 41.4989 13.1845 40.3364Z" fill-rule="evenodd" transform="matrix(1 0 0 -1 279 975)"/><path d="M18.6341 53.4071C15.0655 52.254 12.5829 50.7165 9.24705 47.6415 6.06626 44.7202 4.04926 42.0296 2.49761 38.7239 1.25633 35.8795 0.170241 32.0358-0.0624324 29.1914-0.295212 25.9627 0.0151607 22.9645 0.946067 19.9664 1.6443 17.4294 3.42862 13.5857 4.90258 11.4332 6.37663 9.20386 9.40224 6.2057 11.652 4.74501 13.9018 3.20754 17.7807 1.4394 20.2633 0.670616 23.4439-0.174957 26.392-0.482514 29.5727-0.174957 32.2104 0.0556065 35.7014 0.824394 37.4082 1.59318 39.115 2.28508 41.9854 3.89944 43.7697 5.20625 45.6316 6.51315 48.2693 9.28064 49.7433 11.4332 51.2173 13.5857 53.0016 17.1989 53.6223 19.5051 54.3204 21.8114 54.8636 25.2708 54.8636 27.2695 54.8636 29.2683 54.3204 32.6508 53.6223 34.9571 52.924 37.1864 51.6052 40.2615 50.6743 41.7989 49.6657 43.3365 47.2608 46.0271 45.2437 47.8721 43.2267 49.7171 39.9683 51.8697 37.9513 52.7152 35.9342 53.6378 31.9001 54.4834 28.8745 54.6371 24.8404 54.8678 22.2028 54.5603 18.6341 53.4071Z" fill-rule="evenodd" transform="matrix(1 0 0 -1 356 1022)"/><path d="M410.829 268.542C409.745 268.387 397.593 267.538 383.738 266.688 369.883 265.838 352.313 264.37 344.65 263.521 336.988 262.671 323.21 260.817 314.077 259.272 304.944 257.804 291.863 255.564 285.051 254.25 278.24 252.937 264.308 249.847 254.091 247.298 243.874 244.749 230.793 241.272 225.065 239.65 219.338 237.95 209.043 234.706 202.232 232.388 195.421 230.148 185.513 226.672 180.25 224.663 174.987 222.732 165.931 219.178 160.125 216.784 154.32 214.389 141.859 208.672 132.338 204.114 122.895 199.479 110.743 193.222 105.248 190.209 99.8298 187.196 88.9936 180.63 81.0987 175.686 73.2037 170.742 61.4387 162.862 54.937 158.227 48.4352 153.592 37.8312 145.558 31.3295 140.382 24.9052 135.129 15.0752 126.863 9.50235 121.842 4.0068 116.898-0.55987 112.417-0.55987 111.954-0.55987 111.49 3.31016 108.014 7.95425 104.229 12.6757 100.443 19.7967 94.9587 23.8216 92.1004 27.8464 89.1649 35.8962 83.9891 41.624 80.5128 47.3516 77.0365 58.7296 71.0108 66.7793 66.9938 74.9065 63.054 86.7489 57.8782 93.0958 55.5607 99.5202 53.1659 110.356 49.7668 117.245 47.8355 124.134 45.9815 130.713 43.8185 131.719 43.2005 132.88 42.4279 135.512 38.1019 138.376 32.1536 142.168 24.4284 144.258 21.3385 148.206 17.0896 150.992 14.1541 155.868 9.98249 159.042 7.89676 162.293 5.73365 167.479 3.18443 171.116 1.9484 176.922 0.0170885 178.47-0.137337 188.687-0.137337 199.291-0.0601766 200.297 0.0943535 206.876 2.41188 210.669 3.72518 215.545 5.96545 217.712 7.43317 219.802 8.82373 223.208 11.4503 225.298 13.3043 227.31 15.081 230.561 18.7891 232.573 21.5701 234.508 24.2739 237.527 29.9133 239.307 33.9304 241.242 38.2564 243.332 41.9644 244.416 42.8143 245.499 43.5867 251.924 45.7498 258.735 47.6037 265.546 49.5351 274.602 52.2388 278.859 53.7066 283.116 55.1743 289.618 57.6464 293.411 59.1914 297.126 60.7365 306.182 64.9852 313.535 68.6161 320.811 72.3241 331.028 77.8862 336.136 81.1308 341.245 84.298 348.211 88.8558 351.617 91.1733 355.022 93.5681 361.679 98.435 366.323 102.066 371.044 105.697 382.964 116.666 392.949 126.477 406.03 139.301 413.847 147.721 421.2 156.991 426.773 164.021 432.501 171.514 433.972 173.6 435.442 175.763 439.312 181.48 442.641 186.347 445.892 191.214 451.464 200.252 454.947 206.355 458.508 212.535 464.468 223.813 468.183 231.461 471.898 239.187 476.93 250.233 479.329 256.182 481.728 262.053 483.586 266.92 483.431 267.074 483.276 267.229 477.471 267.692 470.428 268.156 463.384 268.619 447.594 268.928 435.21 268.851 422.903 268.851 411.912 268.696 410.829 268.542Z" fill-rule="evenodd" transform="matrix(1 0 0 -1 468 1239)"/><path d="M7.55113 25.2787C5.59845 24.2642 3.25528 22.3131 2.31805 20.8303 1.38082 19.4255 0.365372 17.0842 0.0529985 15.6014-0.181361 14.1186-0.181361 11.6992 0.131118 10.1384 0.443492 8.34342 1.77132 6.15824 4.03637 3.97297 6.69202 1.31956 8.17598 0.461034 10.9878 0.070855 12.9404-0.241267 15.3617-0.319324 16.3771-0.00720201 17.3924 0.226969 19.4232 1.2415 20.8291 2.25603 22.3131 3.19261 24.3438 5.37778 25.3593 7.09472 26.8432 9.59212 27.0776 10.9968 26.7651 14.2747 26.5309 16.694 25.7498 19.3474 24.7344 20.7523 23.8752 22.001 22.0788 23.796 20.8291 24.6544 19.5795 25.5129 16.8457 26.4494 14.815 26.6835 11.847 26.9957 10.2848 26.6835 7.55113 25.2787Z" fill-rule="evenodd" transform="matrix(1 0 0 -1 352 1071)"/></g></svg>